<mxfile host="app.diagrams.net" agent="Mozilla/5.0 (Windows NT 10.0; Win64; x64) AppleWebKit/537.36 (KHTML, like Gecko) Chrome/137.0.0.0 Safari/537.36" version="27.2.0" pages="2">
  <diagram id="ctEW3nZq9-VKxweymOHd" name="森の構築">
    <mxGraphModel dx="1475" dy="683" grid="1" gridSize="10" guides="1" tooltips="1" connect="1" arrows="1" fold="1" page="1" pageScale="1" pageWidth="1654" pageHeight="2336" math="1" shadow="0">
      <root>
        <mxCell id="0" />
        <mxCell id="1" parent="0" />
        <mxCell id="KkNRgQfYoFo2e_EFKDwj-26" value="&lt;font style=&quot;font-size: 20px;&quot; face=&quot;メイリオ&quot;&gt;B&lt;/font&gt;" style="rounded=1;whiteSpace=wrap;html=1;" parent="1" vertex="1">
          <mxGeometry x="720" y="80" width="200" height="140" as="geometry" />
        </mxCell>
        <mxCell id="Cg4mtHWxPLrlXdYrXlAJ-1" value="&lt;font&gt;0&lt;/font&gt;" style="ellipse;whiteSpace=wrap;html=1;aspect=fixed;fontFamily=メイリオ;fontSize=20;" vertex="1" parent="1">
          <mxGeometry x="80" y="80" width="40" height="40" as="geometry" />
        </mxCell>
        <mxCell id="Cg4mtHWxPLrlXdYrXlAJ-2" value="2" style="ellipse;whiteSpace=wrap;html=1;aspect=fixed;fontFamily=メイリオ;fontSize=20;" vertex="1" parent="1">
          <mxGeometry x="80" y="200" width="40" height="40" as="geometry" />
        </mxCell>
        <mxCell id="Cg4mtHWxPLrlXdYrXlAJ-3" value="1" style="ellipse;whiteSpace=wrap;html=1;aspect=fixed;fontFamily=メイリオ;fontSize=20;" vertex="1" parent="1">
          <mxGeometry x="240" y="80" width="40" height="40" as="geometry" />
        </mxCell>
        <mxCell id="Cg4mtHWxPLrlXdYrXlAJ-4" value="4" style="ellipse;whiteSpace=wrap;html=1;aspect=fixed;fontFamily=メイリオ;fontSize=20;" vertex="1" parent="1">
          <mxGeometry x="80" y="320" width="40" height="40" as="geometry" />
        </mxCell>
        <mxCell id="Cg4mtHWxPLrlXdYrXlAJ-5" value="3" style="ellipse;whiteSpace=wrap;html=1;aspect=fixed;fontFamily=メイリオ;fontSize=20;" vertex="1" parent="1">
          <mxGeometry x="240" y="200" width="40" height="40" as="geometry" />
        </mxCell>
        <mxCell id="Cg4mtHWxPLrlXdYrXlAJ-6" value="5" style="ellipse;whiteSpace=wrap;html=1;aspect=fixed;fontFamily=メイリオ;fontSize=20;" vertex="1" parent="1">
          <mxGeometry x="240" y="320" width="40" height="40" as="geometry" />
        </mxCell>
        <mxCell id="Cg4mtHWxPLrlXdYrXlAJ-7" value="" style="endArrow=classic;html=1;rounded=0;entryX=0.5;entryY=1;entryDx=0;entryDy=0;strokeWidth=2;exitX=0.5;exitY=0;exitDx=0;exitDy=0;fillColor=#f8cecc;strokeColor=#FF0000;" edge="1" parent="1" source="Cg4mtHWxPLrlXdYrXlAJ-2" target="Cg4mtHWxPLrlXdYrXlAJ-1">
          <mxGeometry width="50" height="50" relative="1" as="geometry">
            <mxPoint x="50" y="170" as="sourcePoint" />
            <mxPoint x="700" y="380" as="targetPoint" />
          </mxGeometry>
        </mxCell>
        <mxCell id="Cg4mtHWxPLrlXdYrXlAJ-8" value="" style="endArrow=classic;html=1;rounded=0;strokeWidth=2;exitX=1;exitY=0.5;exitDx=0;exitDy=0;entryX=0;entryY=0.5;entryDx=0;entryDy=0;strokeColor=#FF0000;" edge="1" parent="1" source="Cg4mtHWxPLrlXdYrXlAJ-1" target="Cg4mtHWxPLrlXdYrXlAJ-3">
          <mxGeometry width="50" height="50" relative="1" as="geometry">
            <mxPoint x="200" y="160" as="sourcePoint" />
            <mxPoint x="150" y="160" as="targetPoint" />
          </mxGeometry>
        </mxCell>
        <mxCell id="Cg4mtHWxPLrlXdYrXlAJ-9" value="" style="endArrow=classic;html=1;rounded=0;exitX=0.5;exitY=0;exitDx=0;exitDy=0;entryX=0.5;entryY=1;entryDx=0;entryDy=0;strokeWidth=2;" edge="1" parent="1" source="Cg4mtHWxPLrlXdYrXlAJ-4" target="Cg4mtHWxPLrlXdYrXlAJ-2">
          <mxGeometry width="50" height="50" relative="1" as="geometry">
            <mxPoint x="149.65999999999997" y="249.9999999999999" as="sourcePoint" />
            <mxPoint x="149.65999999999997" y="329.9999999999999" as="targetPoint" />
          </mxGeometry>
        </mxCell>
        <mxCell id="Cg4mtHWxPLrlXdYrXlAJ-10" value="" style="endArrow=classic;html=1;rounded=0;exitX=1;exitY=0.5;exitDx=0;exitDy=0;strokeWidth=2;" edge="1" parent="1" source="Cg4mtHWxPLrlXdYrXlAJ-2" target="Cg4mtHWxPLrlXdYrXlAJ-5">
          <mxGeometry width="50" height="50" relative="1" as="geometry">
            <mxPoint x="260" y="250" as="sourcePoint" />
            <mxPoint x="140" y="250" as="targetPoint" />
          </mxGeometry>
        </mxCell>
        <mxCell id="Cg4mtHWxPLrlXdYrXlAJ-11" value="" style="endArrow=classic;html=1;rounded=0;exitX=0.5;exitY=0;exitDx=0;exitDy=0;entryX=0.5;entryY=1;entryDx=0;entryDy=0;strokeWidth=2;" edge="1" parent="1" source="Cg4mtHWxPLrlXdYrXlAJ-5" target="Cg4mtHWxPLrlXdYrXlAJ-3">
          <mxGeometry width="50" height="50" relative="1" as="geometry">
            <mxPoint x="280" y="340" as="sourcePoint" />
            <mxPoint x="160" y="340" as="targetPoint" />
          </mxGeometry>
        </mxCell>
        <mxCell id="Cg4mtHWxPLrlXdYrXlAJ-12" value="" style="endArrow=classic;html=1;rounded=0;strokeWidth=2;exitX=0.5;exitY=0;exitDx=0;exitDy=0;" edge="1" parent="1" source="Cg4mtHWxPLrlXdYrXlAJ-21" target="Cg4mtHWxPLrlXdYrXlAJ-4">
          <mxGeometry width="50" height="50" relative="1" as="geometry">
            <mxPoint x="190" y="430" as="sourcePoint" />
            <mxPoint x="250" y="350" as="targetPoint" />
          </mxGeometry>
        </mxCell>
        <mxCell id="Cg4mtHWxPLrlXdYrXlAJ-13" value="" style="endArrow=classic;html=1;rounded=0;entryX=1;entryY=0.5;entryDx=0;entryDy=0;strokeWidth=2;exitX=0;exitY=0.5;exitDx=0;exitDy=0;" edge="1" parent="1" source="Cg4mtHWxPLrlXdYrXlAJ-6" target="Cg4mtHWxPLrlXdYrXlAJ-4">
          <mxGeometry width="50" height="50" relative="1" as="geometry">
            <mxPoint x="292" y="390" as="sourcePoint" />
            <mxPoint x="160" y="390" as="targetPoint" />
          </mxGeometry>
        </mxCell>
        <mxCell id="Cg4mtHWxPLrlXdYrXlAJ-14" value="" style="endArrow=classic;html=1;rounded=0;exitX=0.5;exitY=1;exitDx=0;exitDy=0;strokeWidth=2;" edge="1" parent="1" source="Cg4mtHWxPLrlXdYrXlAJ-5" target="Cg4mtHWxPLrlXdYrXlAJ-6">
          <mxGeometry width="50" height="50" relative="1" as="geometry">
            <mxPoint x="270" y="220" as="sourcePoint" />
            <mxPoint x="360" y="220" as="targetPoint" />
          </mxGeometry>
        </mxCell>
        <mxCell id="Cg4mtHWxPLrlXdYrXlAJ-15" value="3" style="text;html=1;align=center;verticalAlign=middle;whiteSpace=wrap;rounded=0;fontFamily=メイリオ;fontSize=17;" vertex="1" parent="1">
          <mxGeometry x="60" y="140" width="40" height="40" as="geometry" />
        </mxCell>
        <mxCell id="Cg4mtHWxPLrlXdYrXlAJ-16" value="4" style="text;html=1;align=center;verticalAlign=middle;whiteSpace=wrap;rounded=0;fontFamily=メイリオ;fontSize=17;" vertex="1" parent="1">
          <mxGeometry x="260" y="140" width="40" height="40" as="geometry" />
        </mxCell>
        <mxCell id="Cg4mtHWxPLrlXdYrXlAJ-17" value="2" style="text;html=1;align=center;verticalAlign=middle;whiteSpace=wrap;rounded=0;fontFamily=メイリオ;fontSize=17;" vertex="1" parent="1">
          <mxGeometry x="260" y="260" width="40" height="40" as="geometry" />
        </mxCell>
        <mxCell id="Cg4mtHWxPLrlXdYrXlAJ-18" value="2" style="text;html=1;align=center;verticalAlign=middle;whiteSpace=wrap;rounded=0;fontFamily=メイリオ;fontSize=17;" vertex="1" parent="1">
          <mxGeometry x="60" y="260" width="40" height="40" as="geometry" />
        </mxCell>
        <mxCell id="Cg4mtHWxPLrlXdYrXlAJ-19" value="4" style="text;html=1;align=center;verticalAlign=middle;whiteSpace=wrap;rounded=0;fontFamily=メイリオ;fontSize=17;" vertex="1" parent="1">
          <mxGeometry x="160" y="220" width="40" height="40" as="geometry" />
        </mxCell>
        <mxCell id="Cg4mtHWxPLrlXdYrXlAJ-20" value="4" style="text;html=1;align=center;verticalAlign=middle;whiteSpace=wrap;rounded=0;fontFamily=メイリオ;fontSize=17;" vertex="1" parent="1">
          <mxGeometry x="160" y="340" width="40" height="40" as="geometry" />
        </mxCell>
        <mxCell id="Cg4mtHWxPLrlXdYrXlAJ-21" value="6" style="ellipse;whiteSpace=wrap;html=1;aspect=fixed;fontFamily=メイリオ;fontSize=20;" vertex="1" parent="1">
          <mxGeometry x="80" y="440" width="40" height="40" as="geometry" />
        </mxCell>
        <mxCell id="Cg4mtHWxPLrlXdYrXlAJ-22" value="" style="endArrow=classic;html=1;rounded=0;exitX=0;exitY=1;exitDx=0;exitDy=0;entryX=1;entryY=0;entryDx=0;entryDy=0;strokeWidth=2;strokeColor=#FF0000;" edge="1" parent="1" source="Cg4mtHWxPLrlXdYrXlAJ-3" target="Cg4mtHWxPLrlXdYrXlAJ-2">
          <mxGeometry width="50" height="50" relative="1" as="geometry">
            <mxPoint x="260" y="240" as="sourcePoint" />
            <mxPoint x="260" y="160" as="targetPoint" />
          </mxGeometry>
        </mxCell>
        <mxCell id="Cg4mtHWxPLrlXdYrXlAJ-23" value="4" style="text;html=1;align=center;verticalAlign=middle;whiteSpace=wrap;rounded=0;fontFamily=メイリオ;fontSize=17;" vertex="1" parent="1">
          <mxGeometry x="60" y="380" width="40" height="40" as="geometry" />
        </mxCell>
        <mxCell id="Cg4mtHWxPLrlXdYrXlAJ-24" value="3" style="text;html=1;align=center;verticalAlign=middle;whiteSpace=wrap;rounded=0;fontFamily=メイリオ;fontSize=17;" vertex="1" parent="1">
          <mxGeometry x="160" y="160" width="40" height="40" as="geometry" />
        </mxCell>
        <mxCell id="EMCson0QYtTeiMfqZPXa-1" value="4" style="text;html=1;align=center;verticalAlign=middle;whiteSpace=wrap;rounded=0;fontFamily=メイリオ;fontSize=17;" vertex="1" parent="1">
          <mxGeometry x="160" y="60" width="40" height="40" as="geometry" />
        </mxCell>
        <mxCell id="EMCson0QYtTeiMfqZPXa-5" value="4" style="ellipse;whiteSpace=wrap;html=1;aspect=fixed;fontFamily=メイリオ;fontSize=20;" vertex="1" parent="1">
          <mxGeometry x="400" y="320" width="40" height="40" as="geometry" />
        </mxCell>
        <mxCell id="EMCson0QYtTeiMfqZPXa-6" value="3" style="ellipse;whiteSpace=wrap;html=1;aspect=fixed;fontFamily=メイリオ;fontSize=20;" vertex="1" parent="1">
          <mxGeometry x="560" y="200" width="40" height="40" as="geometry" />
        </mxCell>
        <mxCell id="EMCson0QYtTeiMfqZPXa-7" value="5" style="ellipse;whiteSpace=wrap;html=1;aspect=fixed;fontFamily=メイリオ;fontSize=20;" vertex="1" parent="1">
          <mxGeometry x="560" y="320" width="40" height="40" as="geometry" />
        </mxCell>
        <mxCell id="EMCson0QYtTeiMfqZPXa-10" value="" style="endArrow=classic;html=1;rounded=0;exitX=0.5;exitY=0;exitDx=0;exitDy=0;strokeWidth=2;entryX=0.902;entryY=0.898;entryDx=0;entryDy=0;entryPerimeter=0;" edge="1" parent="1" source="EMCson0QYtTeiMfqZPXa-5" target="EMCson0QYtTeiMfqZPXa-34">
          <mxGeometry width="50" height="50" relative="1" as="geometry">
            <mxPoint x="469.65999999999997" y="249.9999999999999" as="sourcePoint" />
            <mxPoint x="450" y="250" as="targetPoint" />
          </mxGeometry>
        </mxCell>
        <mxCell id="EMCson0QYtTeiMfqZPXa-11" value="" style="endArrow=classic;html=1;rounded=0;exitX=0.897;exitY=0.897;exitDx=0;exitDy=0;strokeWidth=2;exitPerimeter=0;strokeColor=#FF0000;" edge="1" parent="1" source="EMCson0QYtTeiMfqZPXa-34" target="EMCson0QYtTeiMfqZPXa-6">
          <mxGeometry width="50" height="50" relative="1" as="geometry">
            <mxPoint x="500" y="120" as="sourcePoint" />
            <mxPoint x="460" y="250" as="targetPoint" />
          </mxGeometry>
        </mxCell>
        <mxCell id="EMCson0QYtTeiMfqZPXa-12" value="" style="endArrow=classic;html=1;rounded=0;exitX=0.5;exitY=0;exitDx=0;exitDy=0;strokeWidth=2;entryX=0.11;entryY=0.096;entryDx=0;entryDy=0;entryPerimeter=0;strokeColor=#FF0000;" edge="1" parent="1" source="EMCson0QYtTeiMfqZPXa-6" target="EMCson0QYtTeiMfqZPXa-34">
          <mxGeometry width="50" height="50" relative="1" as="geometry">
            <mxPoint x="600" y="340" as="sourcePoint" />
            <mxPoint x="579" y="98" as="targetPoint" />
          </mxGeometry>
        </mxCell>
        <mxCell id="EMCson0QYtTeiMfqZPXa-13" value="" style="endArrow=classic;html=1;rounded=0;strokeWidth=2;exitX=0.5;exitY=0;exitDx=0;exitDy=0;" edge="1" parent="1" source="EMCson0QYtTeiMfqZPXa-22" target="EMCson0QYtTeiMfqZPXa-5">
          <mxGeometry width="50" height="50" relative="1" as="geometry">
            <mxPoint x="510" y="430" as="sourcePoint" />
            <mxPoint x="570" y="350" as="targetPoint" />
          </mxGeometry>
        </mxCell>
        <mxCell id="EMCson0QYtTeiMfqZPXa-14" value="" style="endArrow=classic;html=1;rounded=0;entryX=1;entryY=0.5;entryDx=0;entryDy=0;strokeWidth=2;exitX=0;exitY=0.5;exitDx=0;exitDy=0;" edge="1" parent="1" source="EMCson0QYtTeiMfqZPXa-7" target="EMCson0QYtTeiMfqZPXa-5">
          <mxGeometry width="50" height="50" relative="1" as="geometry">
            <mxPoint x="612" y="390" as="sourcePoint" />
            <mxPoint x="480" y="390" as="targetPoint" />
          </mxGeometry>
        </mxCell>
        <mxCell id="EMCson0QYtTeiMfqZPXa-15" value="" style="endArrow=classic;html=1;rounded=0;exitX=0.5;exitY=1;exitDx=0;exitDy=0;strokeWidth=2;" edge="1" parent="1" source="EMCson0QYtTeiMfqZPXa-6" target="EMCson0QYtTeiMfqZPXa-7">
          <mxGeometry width="50" height="50" relative="1" as="geometry">
            <mxPoint x="590" y="220" as="sourcePoint" />
            <mxPoint x="680" y="220" as="targetPoint" />
          </mxGeometry>
        </mxCell>
        <mxCell id="EMCson0QYtTeiMfqZPXa-17" value="&lt;font style=&quot;color: rgb(255, 0, 0);&quot;&gt;3&lt;/font&gt;" style="text;html=1;align=center;verticalAlign=middle;whiteSpace=wrap;rounded=0;fontFamily=メイリオ;fontSize=17;" vertex="1" parent="1">
          <mxGeometry x="580" y="138.62" width="40" height="40" as="geometry" />
        </mxCell>
        <mxCell id="EMCson0QYtTeiMfqZPXa-18" value="5" style="text;html=1;align=center;verticalAlign=middle;whiteSpace=wrap;rounded=0;fontFamily=メイリオ;fontSize=17;" vertex="1" parent="1">
          <mxGeometry x="580" y="260" width="40" height="40" as="geometry" />
        </mxCell>
        <mxCell id="EMCson0QYtTeiMfqZPXa-19" value="&lt;font style=&quot;color: rgb(255, 0, 0);&quot;&gt;1&lt;/font&gt;" style="text;html=1;align=center;verticalAlign=middle;whiteSpace=wrap;rounded=0;fontFamily=メイリオ;fontSize=17;" vertex="1" parent="1">
          <mxGeometry x="380" y="260" width="40" height="40" as="geometry" />
        </mxCell>
        <mxCell id="EMCson0QYtTeiMfqZPXa-20" value="4" style="text;html=1;align=center;verticalAlign=middle;whiteSpace=wrap;rounded=0;fontFamily=メイリオ;fontSize=17;" vertex="1" parent="1">
          <mxGeometry x="480" y="220" width="40" height="40" as="geometry" />
        </mxCell>
        <mxCell id="EMCson0QYtTeiMfqZPXa-21" value="4" style="text;html=1;align=center;verticalAlign=middle;whiteSpace=wrap;rounded=0;fontFamily=メイリオ;fontSize=17;" vertex="1" parent="1">
          <mxGeometry x="480" y="340" width="40" height="40" as="geometry" />
        </mxCell>
        <mxCell id="EMCson0QYtTeiMfqZPXa-22" value="6" style="ellipse;whiteSpace=wrap;html=1;aspect=fixed;fontFamily=メイリオ;fontSize=20;" vertex="1" parent="1">
          <mxGeometry x="400" y="440" width="40" height="40" as="geometry" />
        </mxCell>
        <mxCell id="EMCson0QYtTeiMfqZPXa-24" value="4" style="text;html=1;align=center;verticalAlign=middle;whiteSpace=wrap;rounded=0;fontFamily=メイリオ;fontSize=17;" vertex="1" parent="1">
          <mxGeometry x="380" y="380" width="40" height="40" as="geometry" />
        </mxCell>
        <mxCell id="EMCson0QYtTeiMfqZPXa-34" value="" style="verticalLabelPosition=bottom;verticalAlign=top;html=1;shape=mxgraph.basic.orthogonal_triangle;rotation=90;" vertex="1" parent="1">
          <mxGeometry x="421.25" y="58.25" width="157.5" height="200" as="geometry" />
        </mxCell>
        <mxCell id="EMCson0QYtTeiMfqZPXa-52" value="4" style="ellipse;whiteSpace=wrap;html=1;aspect=fixed;fontFamily=メイリオ;fontSize=20;" vertex="1" parent="1">
          <mxGeometry x="720" y="320" width="40" height="40" as="geometry" />
        </mxCell>
        <mxCell id="EMCson0QYtTeiMfqZPXa-54" value="5" style="ellipse;whiteSpace=wrap;html=1;aspect=fixed;fontFamily=メイリオ;fontSize=20;" vertex="1" parent="1">
          <mxGeometry x="880" y="320" width="40" height="40" as="geometry" />
        </mxCell>
        <mxCell id="EMCson0QYtTeiMfqZPXa-55" value="" style="endArrow=classic;html=1;rounded=0;exitX=0.5;exitY=0;exitDx=0;exitDy=0;strokeWidth=2;strokeColor=#FF0000;" edge="1" parent="1" source="EMCson0QYtTeiMfqZPXa-52">
          <mxGeometry width="50" height="50" relative="1" as="geometry">
            <mxPoint x="789.6599999999999" y="249.9999999999999" as="sourcePoint" />
            <mxPoint x="740" y="220" as="targetPoint" />
          </mxGeometry>
        </mxCell>
        <mxCell id="EMCson0QYtTeiMfqZPXa-58" value="" style="endArrow=classic;html=1;rounded=0;strokeWidth=2;exitX=0.5;exitY=0;exitDx=0;exitDy=0;" edge="1" parent="1" source="EMCson0QYtTeiMfqZPXa-66" target="EMCson0QYtTeiMfqZPXa-52">
          <mxGeometry width="50" height="50" relative="1" as="geometry">
            <mxPoint x="830" y="430" as="sourcePoint" />
            <mxPoint x="890" y="350" as="targetPoint" />
          </mxGeometry>
        </mxCell>
        <mxCell id="EMCson0QYtTeiMfqZPXa-59" value="" style="endArrow=classic;html=1;rounded=0;entryX=1;entryY=0.5;entryDx=0;entryDy=0;strokeWidth=2;exitX=0;exitY=0.5;exitDx=0;exitDy=0;strokeColor=#FF0000;" edge="1" parent="1" source="EMCson0QYtTeiMfqZPXa-54" target="EMCson0QYtTeiMfqZPXa-52">
          <mxGeometry width="50" height="50" relative="1" as="geometry">
            <mxPoint x="932" y="390" as="sourcePoint" />
            <mxPoint x="800" y="390" as="targetPoint" />
          </mxGeometry>
        </mxCell>
        <mxCell id="EMCson0QYtTeiMfqZPXa-60" value="" style="endArrow=classic;html=1;rounded=0;exitX=0.907;exitY=1.011;exitDx=0;exitDy=0;strokeWidth=2;exitPerimeter=0;strokeColor=#FF0000;" edge="1" parent="1" source="KkNRgQfYoFo2e_EFKDwj-26" target="EMCson0QYtTeiMfqZPXa-54">
          <mxGeometry width="50" height="50" relative="1" as="geometry">
            <mxPoint x="900" y="240" as="sourcePoint" />
            <mxPoint x="1000" y="220" as="targetPoint" />
          </mxGeometry>
        </mxCell>
        <mxCell id="EMCson0QYtTeiMfqZPXa-62" value="5" style="text;html=1;align=center;verticalAlign=middle;whiteSpace=wrap;rounded=0;fontFamily=メイリオ;fontSize=17;" vertex="1" parent="1">
          <mxGeometry x="900" y="260" width="40" height="40" as="geometry" />
        </mxCell>
        <mxCell id="EMCson0QYtTeiMfqZPXa-63" value="&lt;font style=&quot;color: rgb(255, 0, 0);&quot;&gt;1&lt;/font&gt;" style="text;html=1;align=center;verticalAlign=middle;whiteSpace=wrap;rounded=0;fontFamily=メイリオ;fontSize=17;" vertex="1" parent="1">
          <mxGeometry x="700" y="260" width="40" height="40" as="geometry" />
        </mxCell>
        <mxCell id="EMCson0QYtTeiMfqZPXa-65" value="4" style="text;html=1;align=center;verticalAlign=middle;whiteSpace=wrap;rounded=0;fontFamily=メイリオ;fontSize=17;" vertex="1" parent="1">
          <mxGeometry x="800" y="340" width="40" height="40" as="geometry" />
        </mxCell>
        <mxCell id="EMCson0QYtTeiMfqZPXa-66" value="6" style="ellipse;whiteSpace=wrap;html=1;aspect=fixed;fontFamily=メイリオ;fontSize=20;" vertex="1" parent="1">
          <mxGeometry x="720" y="440" width="40" height="40" as="geometry" />
        </mxCell>
        <mxCell id="EMCson0QYtTeiMfqZPXa-67" value="4" style="text;html=1;align=center;verticalAlign=middle;whiteSpace=wrap;rounded=0;fontFamily=メイリオ;fontSize=17;" vertex="1" parent="1">
          <mxGeometry x="700" y="380" width="40" height="40" as="geometry" />
        </mxCell>
        <mxCell id="EMCson0QYtTeiMfqZPXa-69" value="&lt;font style=&quot;font-size: 20px;&quot; face=&quot;メイリオ&quot;&gt;C&lt;/font&gt;" style="rounded=1;whiteSpace=wrap;html=1;" vertex="1" parent="1">
          <mxGeometry x="1040" y="80" width="200" height="280" as="geometry" />
        </mxCell>
        <mxCell id="EMCson0QYtTeiMfqZPXa-73" value="" style="endArrow=classic;html=1;rounded=0;strokeWidth=2;exitX=0.5;exitY=0;exitDx=0;exitDy=0;strokeColor=#FF0000;" edge="1" parent="1" source="EMCson0QYtTeiMfqZPXa-79">
          <mxGeometry width="50" height="50" relative="1" as="geometry">
            <mxPoint x="1150" y="430" as="sourcePoint" />
            <mxPoint x="1060" y="360" as="targetPoint" />
          </mxGeometry>
        </mxCell>
        <mxCell id="EMCson0QYtTeiMfqZPXa-79" value="6" style="ellipse;whiteSpace=wrap;html=1;aspect=fixed;fontFamily=メイリオ;fontSize=20;" vertex="1" parent="1">
          <mxGeometry x="1040" y="440" width="40" height="40" as="geometry" />
        </mxCell>
        <mxCell id="EMCson0QYtTeiMfqZPXa-80" value="&lt;font style=&quot;color: rgb(255, 0, 0);&quot;&gt;1&lt;/font&gt;" style="text;html=1;align=center;verticalAlign=middle;whiteSpace=wrap;rounded=0;fontFamily=メイリオ;fontSize=17;" vertex="1" parent="1">
          <mxGeometry x="1020" y="380" width="40" height="40" as="geometry" />
        </mxCell>
        <mxCell id="EMCson0QYtTeiMfqZPXa-84" value="&lt;font style=&quot;font-size: 20px;&quot; face=&quot;メイリオ&quot;&gt;A&lt;/font&gt;" style="text;html=1;align=center;verticalAlign=middle;whiteSpace=wrap;rounded=0;" vertex="1" parent="1">
          <mxGeometry x="440" y="100" width="40" height="40" as="geometry" />
        </mxCell>
        <mxCell id="EMCson0QYtTeiMfqZPXa-134" value="" style="endArrow=classic;html=1;rounded=0;exitX=0.5;exitY=1;exitDx=0;exitDy=0;strokeWidth=2;fillColor=#f8cecc;strokeColor=#000000;labelBorderColor=none;entryX=0.5;entryY=0;entryDx=0;entryDy=0;" edge="1" parent="1">
          <mxGeometry width="50" height="50" relative="1" as="geometry">
            <mxPoint x="1060" y="760" as="sourcePoint" />
            <mxPoint x="1140" y="840" as="targetPoint" />
          </mxGeometry>
        </mxCell>
        <mxCell id="EMCson0QYtTeiMfqZPXa-143" value="" style="endArrow=classic;html=1;rounded=0;exitX=0.5;exitY=1;exitDx=0;exitDy=0;strokeWidth=2;fillColor=#f8cecc;strokeColor=#000000;labelBorderColor=none;entryX=0.5;entryY=0;entryDx=0;entryDy=0;" edge="1" parent="1">
          <mxGeometry width="50" height="50" relative="1" as="geometry">
            <mxPoint x="1060" y="760" as="sourcePoint" />
            <mxPoint x="1220" y="840" as="targetPoint" />
          </mxGeometry>
        </mxCell>
        <mxCell id="EMCson0QYtTeiMfqZPXa-144" value="" style="endArrow=classic;html=1;rounded=0;exitX=0.5;exitY=1;exitDx=0;exitDy=0;strokeWidth=2;fillColor=#f8cecc;strokeColor=#000000;labelBorderColor=none;entryX=0.5;entryY=0;entryDx=0;entryDy=0;" edge="1" parent="1">
          <mxGeometry width="50" height="50" relative="1" as="geometry">
            <mxPoint x="1060" y="760" as="sourcePoint" />
            <mxPoint x="1060" y="840" as="targetPoint" />
          </mxGeometry>
        </mxCell>
        <mxCell id="EMCson0QYtTeiMfqZPXa-145" value="" style="endArrow=classic;html=1;rounded=0;strokeWidth=2;fillColor=#f8cecc;strokeColor=#000000;labelBorderColor=none;entryX=0.5;entryY=0;entryDx=0;entryDy=0;exitX=0.5;exitY=1;exitDx=0;exitDy=0;" edge="1" parent="1">
          <mxGeometry width="50" height="50" relative="1" as="geometry">
            <mxPoint x="1060" y="680" as="sourcePoint" />
            <mxPoint x="1060" y="720" as="targetPoint" />
          </mxGeometry>
        </mxCell>
        <mxCell id="EMCson0QYtTeiMfqZPXa-146" value="" style="endArrow=classic;html=1;rounded=0;strokeWidth=2;fillColor=#f8cecc;strokeColor=#000000;labelBorderColor=none;entryX=0.5;entryY=0;entryDx=0;entryDy=0;exitX=0.5;exitY=1;exitDx=0;exitDy=0;" edge="1" parent="1">
          <mxGeometry width="50" height="50" relative="1" as="geometry">
            <mxPoint x="1060" y="680" as="sourcePoint" />
            <mxPoint x="1140" y="720" as="targetPoint" />
          </mxGeometry>
        </mxCell>
        <mxCell id="EMCson0QYtTeiMfqZPXa-147" value="" style="endArrow=classic;html=1;rounded=0;strokeWidth=2;fillColor=#f8cecc;strokeColor=#000000;labelBorderColor=none;entryX=0.5;entryY=0;entryDx=0;entryDy=0;exitX=0.5;exitY=1;exitDx=0;exitDy=0;" edge="1" parent="1">
          <mxGeometry width="50" height="50" relative="1" as="geometry">
            <mxPoint x="1060" y="600" as="sourcePoint" />
            <mxPoint x="1060" y="640" as="targetPoint" />
          </mxGeometry>
        </mxCell>
        <mxCell id="EMCson0QYtTeiMfqZPXa-148" value="" style="endArrow=classic;html=1;rounded=0;strokeWidth=2;fillColor=#f8cecc;strokeColor=#000000;labelBorderColor=none;entryX=0.5;entryY=0;entryDx=0;entryDy=0;exitX=0.5;exitY=1;exitDx=0;exitDy=0;" edge="1" parent="1">
          <mxGeometry width="50" height="50" relative="1" as="geometry">
            <mxPoint x="1060" y="600" as="sourcePoint" />
            <mxPoint x="1220" y="640" as="targetPoint" />
          </mxGeometry>
        </mxCell>
        <mxCell id="EMCson0QYtTeiMfqZPXa-149" value="" style="endArrow=classic;html=1;rounded=0;strokeWidth=2;fillColor=#f8cecc;strokeColor=#000000;labelBorderColor=none;entryX=0.5;entryY=0;entryDx=0;entryDy=0;exitX=0.5;exitY=1;exitDx=0;exitDy=0;" edge="1" parent="1">
          <mxGeometry width="50" height="50" relative="1" as="geometry">
            <mxPoint x="1060" y="600" as="sourcePoint" />
            <mxPoint x="1140" y="640" as="targetPoint" />
          </mxGeometry>
        </mxCell>
        <mxCell id="-K3WVircyBij7C9NYEaW-1" value="" style="endArrow=classic;html=1;rounded=0;entryX=1;entryY=0.5;entryDx=0;entryDy=0;strokeWidth=2;exitX=0.5;exitY=1;exitDx=0;exitDy=0;" edge="1" parent="1" source="Cg4mtHWxPLrlXdYrXlAJ-6" target="Cg4mtHWxPLrlXdYrXlAJ-21">
          <mxGeometry width="50" height="50" relative="1" as="geometry">
            <mxPoint x="330" y="340" as="sourcePoint" />
            <mxPoint x="210" y="340" as="targetPoint" />
          </mxGeometry>
        </mxCell>
        <mxCell id="-K3WVircyBij7C9NYEaW-3" value="4" style="text;html=1;align=center;verticalAlign=middle;whiteSpace=wrap;rounded=0;fontFamily=メイリオ;fontSize=17;" vertex="1" parent="1">
          <mxGeometry x="160" y="420" width="40" height="40" as="geometry" />
        </mxCell>
        <mxCell id="-K3WVircyBij7C9NYEaW-4" value="" style="endArrow=classic;html=1;rounded=0;entryX=1;entryY=0.5;entryDx=0;entryDy=0;strokeWidth=2;exitX=0.5;exitY=1;exitDx=0;exitDy=0;" edge="1" parent="1" source="EMCson0QYtTeiMfqZPXa-7">
          <mxGeometry width="50" height="50" relative="1" as="geometry">
            <mxPoint x="578.75" y="360" as="sourcePoint" />
            <mxPoint x="438.75" y="460" as="targetPoint" />
          </mxGeometry>
        </mxCell>
        <mxCell id="-K3WVircyBij7C9NYEaW-5" value="" style="endArrow=classic;html=1;rounded=0;entryX=1;entryY=0.5;entryDx=0;entryDy=0;strokeWidth=2;exitX=0.5;exitY=1;exitDx=0;exitDy=0;" edge="1" parent="1">
          <mxGeometry width="50" height="50" relative="1" as="geometry">
            <mxPoint x="901.25" y="360" as="sourcePoint" />
            <mxPoint x="760" y="460" as="targetPoint" />
          </mxGeometry>
        </mxCell>
        <mxCell id="-K3WVircyBij7C9NYEaW-6" value="" style="endArrow=classic;html=1;rounded=0;entryX=1;entryY=0.5;entryDx=0;entryDy=0;strokeWidth=2;strokeColor=#FF0000;" edge="1" parent="1">
          <mxGeometry width="50" height="50" relative="1" as="geometry">
            <mxPoint x="1221" y="360" as="sourcePoint" />
            <mxPoint x="1080" y="460" as="targetPoint" />
          </mxGeometry>
        </mxCell>
        <mxCell id="-K3WVircyBij7C9NYEaW-7" value="1" style="text;html=1;align=center;verticalAlign=middle;whiteSpace=wrap;rounded=0;fontFamily=メイリオ;fontSize=17;" vertex="1" parent="1">
          <mxGeometry x="480" y="420" width="40" height="40" as="geometry" />
        </mxCell>
        <mxCell id="-K3WVircyBij7C9NYEaW-8" value="1" style="text;html=1;align=center;verticalAlign=middle;whiteSpace=wrap;rounded=0;fontFamily=メイリオ;fontSize=17;" vertex="1" parent="1">
          <mxGeometry x="800" y="420" width="40" height="40" as="geometry" />
        </mxCell>
        <mxCell id="-K3WVircyBij7C9NYEaW-9" value="1" style="text;html=1;align=center;verticalAlign=middle;whiteSpace=wrap;rounded=0;fontFamily=メイリオ;fontSize=17;" vertex="1" parent="1">
          <mxGeometry x="1120" y="420" width="40" height="40" as="geometry" />
        </mxCell>
        <mxCell id="-K3WVircyBij7C9NYEaW-13" value="&lt;font style=&quot;font-size: 20px;&quot; face=&quot;メイリオ&quot;&gt;D&lt;/font&gt;" style="rounded=1;whiteSpace=wrap;html=1;" vertex="1" parent="1">
          <mxGeometry x="1360" y="80" width="200" height="400" as="geometry" />
        </mxCell>
        <mxCell id="9Vf48l7tI5tNXzzNPa6e-1" value="&lt;font style=&quot;font-size: 8px;&quot; face=&quot;メイリオ&quot;&gt;$$3 \rightarrow A$$&lt;/font&gt;&lt;div&gt;&lt;font style=&quot;font-size: 8px;&quot; face=&quot;メイリオ&quot;&gt;$$(3 \rightarrow 1)$$&lt;/font&gt;&lt;/div&gt;" style="rounded=1;whiteSpace=wrap;html=1;" vertex="1" parent="1">
          <mxGeometry x="1040" y="720" width="40" height="40" as="geometry" />
        </mxCell>
        <mxCell id="9Vf48l7tI5tNXzzNPa6e-2" value="&lt;font style=&quot;font-size: 8px;&quot; face=&quot;メイリオ&quot;&gt;$$2 \rightarrow 0$$&lt;/font&gt;" style="rounded=1;whiteSpace=wrap;html=1;" vertex="1" parent="1">
          <mxGeometry x="1040" y="840" width="40" height="40" as="geometry" />
        </mxCell>
        <mxCell id="9Vf48l7tI5tNXzzNPa6e-3" value="&lt;font style=&quot;font-size: 8px;&quot; face=&quot;メイリオ&quot;&gt;$$0\rightarrow 1$$&lt;/font&gt;" style="rounded=1;whiteSpace=wrap;html=1;" vertex="1" parent="1">
          <mxGeometry x="1120" y="840" width="40" height="40" as="geometry" />
        </mxCell>
        <mxCell id="9Vf48l7tI5tNXzzNPa6e-4" value="&lt;font style=&quot;font-size: 8px;&quot; face=&quot;メイリオ&quot;&gt;$$1\rightarrow 2$$&lt;/font&gt;" style="rounded=1;whiteSpace=wrap;html=1;" vertex="1" parent="1">
          <mxGeometry x="1200" y="840" width="40" height="40" as="geometry" />
        </mxCell>
        <mxCell id="9Vf48l7tI5tNXzzNPa6e-5" value="&lt;font style=&quot;font-size: 8px;&quot; face=&quot;メイリオ&quot;&gt;$$A \rightarrow 3$$&lt;/font&gt;&lt;div&gt;&lt;font style=&quot;font-size: 8px;&quot; face=&quot;メイリオ&quot;&gt;$$(2 \rightarrow 3)$$&lt;/font&gt;&lt;/div&gt;" style="rounded=1;whiteSpace=wrap;html=1;" vertex="1" parent="1">
          <mxGeometry x="1120" y="720" width="40" height="40" as="geometry" />
        </mxCell>
        <mxCell id="9Vf48l7tI5tNXzzNPa6e-6" value="&lt;font style=&quot;font-size: 8px;&quot; face=&quot;メイリオ&quot;&gt;$$4 \rightarrow B$$&lt;/font&gt;&lt;div&gt;&lt;font style=&quot;font-size: 8px;&quot; face=&quot;メイリオ&quot;&gt;$$(4 \rightarrow 2)$$&lt;/font&gt;&lt;/div&gt;" style="rounded=1;whiteSpace=wrap;html=1;" vertex="1" parent="1">
          <mxGeometry x="1040" y="640" width="40" height="40" as="geometry" />
        </mxCell>
        <mxCell id="9Vf48l7tI5tNXzzNPa6e-7" value="&lt;font style=&quot;font-size: 8px;&quot; face=&quot;メイリオ&quot;&gt;$$B \rightarrow 5$$&lt;/font&gt;&lt;div&gt;&lt;font style=&quot;font-size: 8px;&quot; face=&quot;メイリオ&quot;&gt;$$(3 \rightarrow 5)$$&lt;/font&gt;&lt;/div&gt;" style="rounded=1;whiteSpace=wrap;html=1;" vertex="1" parent="1">
          <mxGeometry x="1200" y="640" width="40" height="40" as="geometry" />
        </mxCell>
        <mxCell id="9Vf48l7tI5tNXzzNPa6e-8" value="&lt;font style=&quot;font-size: 8px;&quot; face=&quot;メイリオ&quot;&gt;$$5\rightarrow 4$$&lt;/font&gt;" style="rounded=1;whiteSpace=wrap;html=1;" vertex="1" parent="1">
          <mxGeometry x="1120" y="640" width="40" height="40" as="geometry" />
        </mxCell>
        <mxCell id="9Vf48l7tI5tNXzzNPa6e-9" value="&lt;font style=&quot;font-size: 8px;&quot; face=&quot;メイリオ&quot;&gt;$$6 \rightarrow C$$&lt;/font&gt;&lt;div&gt;&lt;font style=&quot;font-size: 8px;&quot; face=&quot;メイリオ&quot;&gt;$$(6 \rightarrow 4)$$&lt;/font&gt;&lt;/div&gt;" style="rounded=1;whiteSpace=wrap;html=1;" vertex="1" parent="1">
          <mxGeometry x="1040" y="560" width="40" height="40" as="geometry" />
        </mxCell>
        <mxCell id="9Vf48l7tI5tNXzzNPa6e-11" value="&lt;font style=&quot;font-size: 8px;&quot; face=&quot;メイリオ&quot;&gt;$$C \rightarrow 6$$&lt;/font&gt;&lt;div&gt;&lt;font style=&quot;font-size: 8px;&quot; face=&quot;メイリオ&quot;&gt;$$(5 \rightarrow 6)$$&lt;/font&gt;&lt;/div&gt;" style="rounded=1;whiteSpace=wrap;html=1;" vertex="1" parent="1">
          <mxGeometry x="1120" y="560" width="40" height="40" as="geometry" />
        </mxCell>
        <mxCell id="bWedc2cYOpWTC5kfiv-t-1" value="&lt;font&gt;0&lt;/font&gt;" style="ellipse;whiteSpace=wrap;html=1;aspect=fixed;fontFamily=メイリオ;fontSize=20;" vertex="1" parent="1">
          <mxGeometry x="80" y="1080" width="40" height="40" as="geometry" />
        </mxCell>
        <mxCell id="bWedc2cYOpWTC5kfiv-t-2" value="2" style="ellipse;whiteSpace=wrap;html=1;aspect=fixed;fontFamily=メイリオ;fontSize=20;" vertex="1" parent="1">
          <mxGeometry x="80" y="1200" width="40" height="40" as="geometry" />
        </mxCell>
        <mxCell id="bWedc2cYOpWTC5kfiv-t-3" value="1" style="ellipse;whiteSpace=wrap;html=1;aspect=fixed;fontFamily=メイリオ;fontSize=20;" vertex="1" parent="1">
          <mxGeometry x="240" y="1080" width="40" height="40" as="geometry" />
        </mxCell>
        <mxCell id="bWedc2cYOpWTC5kfiv-t-4" value="4" style="ellipse;whiteSpace=wrap;html=1;aspect=fixed;fontFamily=メイリオ;fontSize=20;" vertex="1" parent="1">
          <mxGeometry x="80" y="1320" width="40" height="40" as="geometry" />
        </mxCell>
        <mxCell id="bWedc2cYOpWTC5kfiv-t-5" value="3" style="ellipse;whiteSpace=wrap;html=1;aspect=fixed;fontFamily=メイリオ;fontSize=20;" vertex="1" parent="1">
          <mxGeometry x="240" y="1200" width="40" height="40" as="geometry" />
        </mxCell>
        <mxCell id="bWedc2cYOpWTC5kfiv-t-6" value="5" style="ellipse;whiteSpace=wrap;html=1;aspect=fixed;fontFamily=メイリオ;fontSize=20;" vertex="1" parent="1">
          <mxGeometry x="240" y="1320" width="40" height="40" as="geometry" />
        </mxCell>
        <mxCell id="bWedc2cYOpWTC5kfiv-t-7" value="" style="endArrow=classic;html=1;rounded=0;entryX=0.5;entryY=1;entryDx=0;entryDy=0;strokeWidth=2;exitX=0.5;exitY=0;exitDx=0;exitDy=0;fillColor=#f8cecc;strokeColor=#000000;" edge="1" parent="1" source="bWedc2cYOpWTC5kfiv-t-2" target="bWedc2cYOpWTC5kfiv-t-1">
          <mxGeometry width="50" height="50" relative="1" as="geometry">
            <mxPoint x="50" y="1170" as="sourcePoint" />
            <mxPoint x="700" y="1380" as="targetPoint" />
          </mxGeometry>
        </mxCell>
        <mxCell id="bWedc2cYOpWTC5kfiv-t-8" value="" style="endArrow=classic;html=1;rounded=0;strokeWidth=2;exitX=1;exitY=0.5;exitDx=0;exitDy=0;entryX=0;entryY=0.5;entryDx=0;entryDy=0;strokeColor=#000000;" edge="1" parent="1" source="bWedc2cYOpWTC5kfiv-t-1" target="bWedc2cYOpWTC5kfiv-t-3">
          <mxGeometry width="50" height="50" relative="1" as="geometry">
            <mxPoint x="200" y="1160" as="sourcePoint" />
            <mxPoint x="150" y="1160" as="targetPoint" />
          </mxGeometry>
        </mxCell>
        <mxCell id="bWedc2cYOpWTC5kfiv-t-9" value="" style="endArrow=classic;html=1;rounded=0;exitX=0.5;exitY=0;exitDx=0;exitDy=0;entryX=0.5;entryY=1;entryDx=0;entryDy=0;strokeWidth=2;" edge="1" parent="1" source="bWedc2cYOpWTC5kfiv-t-4" target="bWedc2cYOpWTC5kfiv-t-2">
          <mxGeometry width="50" height="50" relative="1" as="geometry">
            <mxPoint x="149.65999999999997" y="1250" as="sourcePoint" />
            <mxPoint x="149.65999999999997" y="1330" as="targetPoint" />
          </mxGeometry>
        </mxCell>
        <mxCell id="bWedc2cYOpWTC5kfiv-t-10" value="" style="endArrow=classic;html=1;rounded=0;exitX=1;exitY=0.5;exitDx=0;exitDy=0;strokeWidth=2;" edge="1" parent="1" source="bWedc2cYOpWTC5kfiv-t-2" target="bWedc2cYOpWTC5kfiv-t-5">
          <mxGeometry width="50" height="50" relative="1" as="geometry">
            <mxPoint x="260" y="1250" as="sourcePoint" />
            <mxPoint x="140" y="1250" as="targetPoint" />
          </mxGeometry>
        </mxCell>
        <mxCell id="bWedc2cYOpWTC5kfiv-t-11" value="" style="endArrow=classic;html=1;rounded=0;exitX=0.5;exitY=0;exitDx=0;exitDy=0;entryX=0.5;entryY=1;entryDx=0;entryDy=0;strokeWidth=2;" edge="1" parent="1" source="bWedc2cYOpWTC5kfiv-t-5" target="bWedc2cYOpWTC5kfiv-t-3">
          <mxGeometry width="50" height="50" relative="1" as="geometry">
            <mxPoint x="280" y="1340" as="sourcePoint" />
            <mxPoint x="160" y="1340" as="targetPoint" />
          </mxGeometry>
        </mxCell>
        <mxCell id="bWedc2cYOpWTC5kfiv-t-12" value="" style="endArrow=classic;html=1;rounded=0;strokeWidth=2;exitX=0.5;exitY=0;exitDx=0;exitDy=0;" edge="1" parent="1" source="bWedc2cYOpWTC5kfiv-t-21" target="bWedc2cYOpWTC5kfiv-t-4">
          <mxGeometry width="50" height="50" relative="1" as="geometry">
            <mxPoint x="190" y="1430" as="sourcePoint" />
            <mxPoint x="250" y="1350" as="targetPoint" />
          </mxGeometry>
        </mxCell>
        <mxCell id="bWedc2cYOpWTC5kfiv-t-13" value="" style="endArrow=classic;html=1;rounded=0;entryX=1;entryY=0.5;entryDx=0;entryDy=0;strokeWidth=2;exitX=0;exitY=0.5;exitDx=0;exitDy=0;" edge="1" parent="1" source="bWedc2cYOpWTC5kfiv-t-6" target="bWedc2cYOpWTC5kfiv-t-4">
          <mxGeometry width="50" height="50" relative="1" as="geometry">
            <mxPoint x="292" y="1390" as="sourcePoint" />
            <mxPoint x="160" y="1390" as="targetPoint" />
          </mxGeometry>
        </mxCell>
        <mxCell id="bWedc2cYOpWTC5kfiv-t-14" value="" style="endArrow=classic;html=1;rounded=0;exitX=0.5;exitY=1;exitDx=0;exitDy=0;strokeWidth=2;" edge="1" parent="1" source="bWedc2cYOpWTC5kfiv-t-5" target="bWedc2cYOpWTC5kfiv-t-6">
          <mxGeometry width="50" height="50" relative="1" as="geometry">
            <mxPoint x="270" y="1220" as="sourcePoint" />
            <mxPoint x="360" y="1220" as="targetPoint" />
          </mxGeometry>
        </mxCell>
        <mxCell id="bWedc2cYOpWTC5kfiv-t-15" value="3" style="text;html=1;align=center;verticalAlign=middle;whiteSpace=wrap;rounded=0;fontFamily=メイリオ;fontSize=17;" vertex="1" parent="1">
          <mxGeometry x="60" y="1140" width="40" height="40" as="geometry" />
        </mxCell>
        <mxCell id="bWedc2cYOpWTC5kfiv-t-16" value="4" style="text;html=1;align=center;verticalAlign=middle;whiteSpace=wrap;rounded=0;fontFamily=メイリオ;fontSize=17;" vertex="1" parent="1">
          <mxGeometry x="260" y="1140" width="40" height="40" as="geometry" />
        </mxCell>
        <mxCell id="bWedc2cYOpWTC5kfiv-t-17" value="2" style="text;html=1;align=center;verticalAlign=middle;whiteSpace=wrap;rounded=0;fontFamily=メイリオ;fontSize=17;" vertex="1" parent="1">
          <mxGeometry x="260" y="1260" width="40" height="40" as="geometry" />
        </mxCell>
        <mxCell id="bWedc2cYOpWTC5kfiv-t-18" value="2" style="text;html=1;align=center;verticalAlign=middle;whiteSpace=wrap;rounded=0;fontFamily=メイリオ;fontSize=17;" vertex="1" parent="1">
          <mxGeometry x="60" y="1260" width="40" height="40" as="geometry" />
        </mxCell>
        <mxCell id="bWedc2cYOpWTC5kfiv-t-19" value="4" style="text;html=1;align=center;verticalAlign=middle;whiteSpace=wrap;rounded=0;fontFamily=メイリオ;fontSize=17;" vertex="1" parent="1">
          <mxGeometry x="160" y="1220" width="40" height="40" as="geometry" />
        </mxCell>
        <mxCell id="bWedc2cYOpWTC5kfiv-t-20" value="4" style="text;html=1;align=center;verticalAlign=middle;whiteSpace=wrap;rounded=0;fontFamily=メイリオ;fontSize=17;" vertex="1" parent="1">
          <mxGeometry x="160" y="1340" width="40" height="40" as="geometry" />
        </mxCell>
        <mxCell id="bWedc2cYOpWTC5kfiv-t-21" value="6" style="ellipse;whiteSpace=wrap;html=1;aspect=fixed;fontFamily=メイリオ;fontSize=20;" vertex="1" parent="1">
          <mxGeometry x="80" y="1440" width="40" height="40" as="geometry" />
        </mxCell>
        <mxCell id="bWedc2cYOpWTC5kfiv-t-22" value="" style="endArrow=classic;html=1;rounded=0;exitX=0;exitY=1;exitDx=0;exitDy=0;entryX=1;entryY=0;entryDx=0;entryDy=0;strokeWidth=2;strokeColor=#000000;" edge="1" parent="1" source="bWedc2cYOpWTC5kfiv-t-3" target="bWedc2cYOpWTC5kfiv-t-2">
          <mxGeometry width="50" height="50" relative="1" as="geometry">
            <mxPoint x="260" y="1240" as="sourcePoint" />
            <mxPoint x="260" y="1160" as="targetPoint" />
          </mxGeometry>
        </mxCell>
        <mxCell id="bWedc2cYOpWTC5kfiv-t-23" value="4" style="text;html=1;align=center;verticalAlign=middle;whiteSpace=wrap;rounded=0;fontFamily=メイリオ;fontSize=17;" vertex="1" parent="1">
          <mxGeometry x="60" y="1380" width="40" height="40" as="geometry" />
        </mxCell>
        <mxCell id="bWedc2cYOpWTC5kfiv-t-24" value="3" style="text;html=1;align=center;verticalAlign=middle;whiteSpace=wrap;rounded=0;fontFamily=メイリオ;fontSize=17;" vertex="1" parent="1">
          <mxGeometry x="160" y="1160" width="40" height="40" as="geometry" />
        </mxCell>
        <mxCell id="bWedc2cYOpWTC5kfiv-t-25" value="4" style="text;html=1;align=center;verticalAlign=middle;whiteSpace=wrap;rounded=0;fontFamily=メイリオ;fontSize=17;" vertex="1" parent="1">
          <mxGeometry x="160" y="1060" width="40" height="40" as="geometry" />
        </mxCell>
        <mxCell id="bWedc2cYOpWTC5kfiv-t-26" value="" style="endArrow=classic;html=1;rounded=0;entryX=1;entryY=0.5;entryDx=0;entryDy=0;strokeWidth=2;exitX=0.5;exitY=1;exitDx=0;exitDy=0;" edge="1" parent="1" source="bWedc2cYOpWTC5kfiv-t-6" target="bWedc2cYOpWTC5kfiv-t-21">
          <mxGeometry width="50" height="50" relative="1" as="geometry">
            <mxPoint x="330" y="1340" as="sourcePoint" />
            <mxPoint x="210" y="1340" as="targetPoint" />
          </mxGeometry>
        </mxCell>
        <mxCell id="bWedc2cYOpWTC5kfiv-t-27" value="4" style="text;html=1;align=center;verticalAlign=middle;whiteSpace=wrap;rounded=0;fontFamily=メイリオ;fontSize=17;" vertex="1" parent="1">
          <mxGeometry x="160" y="1420" width="40" height="40" as="geometry" />
        </mxCell>
        <mxCell id="gt6p-B2rjzSAdXHsc4d0-1" value="" style="endArrow=classic;html=1;rounded=0;exitX=0.5;exitY=1;exitDx=0;exitDy=0;strokeWidth=2;fillColor=#f8cecc;strokeColor=#000000;labelBorderColor=none;entryX=0.5;entryY=0;entryDx=0;entryDy=0;" edge="1" parent="1">
          <mxGeometry width="50" height="50" relative="1" as="geometry">
            <mxPoint x="740" y="760" as="sourcePoint" />
            <mxPoint x="820" y="840" as="targetPoint" />
          </mxGeometry>
        </mxCell>
        <mxCell id="gt6p-B2rjzSAdXHsc4d0-2" value="" style="endArrow=classic;html=1;rounded=0;exitX=0.5;exitY=1;exitDx=0;exitDy=0;strokeWidth=2;fillColor=#f8cecc;strokeColor=#000000;labelBorderColor=none;entryX=0.5;entryY=0;entryDx=0;entryDy=0;" edge="1" parent="1">
          <mxGeometry width="50" height="50" relative="1" as="geometry">
            <mxPoint x="740" y="760" as="sourcePoint" />
            <mxPoint x="900" y="840" as="targetPoint" />
          </mxGeometry>
        </mxCell>
        <mxCell id="gt6p-B2rjzSAdXHsc4d0-3" value="" style="endArrow=classic;html=1;rounded=0;exitX=0.5;exitY=1;exitDx=0;exitDy=0;strokeWidth=2;fillColor=#f8cecc;strokeColor=#000000;labelBorderColor=none;entryX=0.5;entryY=0;entryDx=0;entryDy=0;" edge="1" parent="1">
          <mxGeometry width="50" height="50" relative="1" as="geometry">
            <mxPoint x="740" y="760" as="sourcePoint" />
            <mxPoint x="740" y="840" as="targetPoint" />
          </mxGeometry>
        </mxCell>
        <mxCell id="gt6p-B2rjzSAdXHsc4d0-4" value="" style="endArrow=classic;html=1;rounded=0;strokeWidth=2;fillColor=#f8cecc;strokeColor=#000000;labelBorderColor=none;entryX=0.5;entryY=0;entryDx=0;entryDy=0;exitX=0.5;exitY=1;exitDx=0;exitDy=0;" edge="1" parent="1">
          <mxGeometry width="50" height="50" relative="1" as="geometry">
            <mxPoint x="740" y="680" as="sourcePoint" />
            <mxPoint x="740" y="720" as="targetPoint" />
          </mxGeometry>
        </mxCell>
        <mxCell id="gt6p-B2rjzSAdXHsc4d0-5" value="" style="endArrow=classic;html=1;rounded=0;strokeWidth=2;fillColor=#f8cecc;strokeColor=#000000;labelBorderColor=none;entryX=0.5;entryY=0;entryDx=0;entryDy=0;exitX=0.5;exitY=1;exitDx=0;exitDy=0;" edge="1" parent="1">
          <mxGeometry width="50" height="50" relative="1" as="geometry">
            <mxPoint x="740" y="680" as="sourcePoint" />
            <mxPoint x="820" y="720" as="targetPoint" />
          </mxGeometry>
        </mxCell>
        <mxCell id="gt6p-B2rjzSAdXHsc4d0-9" value="&lt;font style=&quot;font-size: 8px;&quot; face=&quot;メイリオ&quot;&gt;$$3 \rightarrow A$$&lt;/font&gt;&lt;div&gt;&lt;font style=&quot;font-size: 8px;&quot; face=&quot;メイリオ&quot;&gt;$$(3 \rightarrow 1)$$&lt;/font&gt;&lt;/div&gt;" style="rounded=1;whiteSpace=wrap;html=1;" vertex="1" parent="1">
          <mxGeometry x="720" y="720" width="40" height="40" as="geometry" />
        </mxCell>
        <mxCell id="gt6p-B2rjzSAdXHsc4d0-10" value="&lt;font style=&quot;font-size: 8px;&quot; face=&quot;メイリオ&quot;&gt;$$2 \rightarrow 0$$&lt;/font&gt;" style="rounded=1;whiteSpace=wrap;html=1;" vertex="1" parent="1">
          <mxGeometry x="720" y="840" width="40" height="40" as="geometry" />
        </mxCell>
        <mxCell id="gt6p-B2rjzSAdXHsc4d0-11" value="&lt;font style=&quot;font-size: 8px;&quot; face=&quot;メイリオ&quot;&gt;$$0\rightarrow 1$$&lt;/font&gt;" style="rounded=1;whiteSpace=wrap;html=1;" vertex="1" parent="1">
          <mxGeometry x="800" y="840" width="40" height="40" as="geometry" />
        </mxCell>
        <mxCell id="gt6p-B2rjzSAdXHsc4d0-12" value="&lt;font style=&quot;font-size: 8px;&quot; face=&quot;メイリオ&quot;&gt;$$1\rightarrow 2$$&lt;/font&gt;" style="rounded=1;whiteSpace=wrap;html=1;" vertex="1" parent="1">
          <mxGeometry x="880" y="840" width="40" height="40" as="geometry" />
        </mxCell>
        <mxCell id="gt6p-B2rjzSAdXHsc4d0-13" value="&lt;font style=&quot;font-size: 8px;&quot; face=&quot;メイリオ&quot;&gt;$$A \rightarrow 3$$&lt;/font&gt;&lt;div&gt;&lt;font style=&quot;font-size: 8px;&quot; face=&quot;メイリオ&quot;&gt;$$(2 \rightarrow 3)$$&lt;/font&gt;&lt;/div&gt;" style="rounded=1;whiteSpace=wrap;html=1;" vertex="1" parent="1">
          <mxGeometry x="800" y="720" width="40" height="40" as="geometry" />
        </mxCell>
        <mxCell id="gt6p-B2rjzSAdXHsc4d0-14" value="&lt;font style=&quot;font-size: 8px;&quot; face=&quot;メイリオ&quot;&gt;$$4 \rightarrow B$$&lt;/font&gt;&lt;div&gt;&lt;font style=&quot;font-size: 8px;&quot; face=&quot;メイリオ&quot;&gt;$$(4 \rightarrow 2)$$&lt;/font&gt;&lt;/div&gt;" style="rounded=1;whiteSpace=wrap;html=1;" vertex="1" parent="1">
          <mxGeometry x="720" y="640" width="40" height="40" as="geometry" />
        </mxCell>
        <mxCell id="gt6p-B2rjzSAdXHsc4d0-15" value="&lt;font style=&quot;font-size: 8px;&quot; face=&quot;メイリオ&quot;&gt;$$B \rightarrow 5$$&lt;/font&gt;&lt;div&gt;&lt;font style=&quot;font-size: 8px;&quot; face=&quot;メイリオ&quot;&gt;$$(3 \rightarrow 5)$$&lt;/font&gt;&lt;/div&gt;" style="rounded=1;whiteSpace=wrap;html=1;" vertex="1" parent="1">
          <mxGeometry x="880" y="640" width="40" height="40" as="geometry" />
        </mxCell>
        <mxCell id="gt6p-B2rjzSAdXHsc4d0-16" value="&lt;font style=&quot;font-size: 8px;&quot; face=&quot;メイリオ&quot;&gt;$$5\rightarrow 4$$&lt;/font&gt;" style="rounded=1;whiteSpace=wrap;html=1;" vertex="1" parent="1">
          <mxGeometry x="800" y="640" width="40" height="40" as="geometry" />
        </mxCell>
        <mxCell id="gt6p-B2rjzSAdXHsc4d0-19" value="" style="endArrow=classic;html=1;rounded=0;exitX=0.5;exitY=1;exitDx=0;exitDy=0;strokeWidth=2;fillColor=#f8cecc;strokeColor=#000000;labelBorderColor=none;entryX=0.5;entryY=0;entryDx=0;entryDy=0;" edge="1" parent="1">
          <mxGeometry width="50" height="50" relative="1" as="geometry">
            <mxPoint x="420" y="760" as="sourcePoint" />
            <mxPoint x="500" y="840" as="targetPoint" />
          </mxGeometry>
        </mxCell>
        <mxCell id="gt6p-B2rjzSAdXHsc4d0-20" value="" style="endArrow=classic;html=1;rounded=0;exitX=0.5;exitY=1;exitDx=0;exitDy=0;strokeWidth=2;fillColor=#f8cecc;strokeColor=#000000;labelBorderColor=none;entryX=0.5;entryY=0;entryDx=0;entryDy=0;" edge="1" parent="1">
          <mxGeometry width="50" height="50" relative="1" as="geometry">
            <mxPoint x="420" y="760" as="sourcePoint" />
            <mxPoint x="580" y="840" as="targetPoint" />
          </mxGeometry>
        </mxCell>
        <mxCell id="gt6p-B2rjzSAdXHsc4d0-21" value="" style="endArrow=classic;html=1;rounded=0;exitX=0.5;exitY=1;exitDx=0;exitDy=0;strokeWidth=2;fillColor=#f8cecc;strokeColor=#000000;labelBorderColor=none;entryX=0.5;entryY=0;entryDx=0;entryDy=0;" edge="1" parent="1">
          <mxGeometry width="50" height="50" relative="1" as="geometry">
            <mxPoint x="420" y="760" as="sourcePoint" />
            <mxPoint x="420" y="840" as="targetPoint" />
          </mxGeometry>
        </mxCell>
        <mxCell id="gt6p-B2rjzSAdXHsc4d0-24" value="&lt;font style=&quot;font-size: 8px;&quot; face=&quot;メイリオ&quot;&gt;$$3 \rightarrow A$$&lt;/font&gt;&lt;div&gt;&lt;font style=&quot;font-size: 8px;&quot; face=&quot;メイリオ&quot;&gt;$$(3 \rightarrow 1)$$&lt;/font&gt;&lt;/div&gt;" style="rounded=1;whiteSpace=wrap;html=1;" vertex="1" parent="1">
          <mxGeometry x="400" y="720" width="40" height="40" as="geometry" />
        </mxCell>
        <mxCell id="gt6p-B2rjzSAdXHsc4d0-25" value="&lt;font style=&quot;font-size: 8px;&quot; face=&quot;メイリオ&quot;&gt;$$2 \rightarrow 0$$&lt;/font&gt;" style="rounded=1;whiteSpace=wrap;html=1;" vertex="1" parent="1">
          <mxGeometry x="400" y="840" width="40" height="40" as="geometry" />
        </mxCell>
        <mxCell id="gt6p-B2rjzSAdXHsc4d0-26" value="&lt;font style=&quot;font-size: 8px;&quot; face=&quot;メイリオ&quot;&gt;$$0\rightarrow 1$$&lt;/font&gt;" style="rounded=1;whiteSpace=wrap;html=1;" vertex="1" parent="1">
          <mxGeometry x="480" y="840" width="40" height="40" as="geometry" />
        </mxCell>
        <mxCell id="gt6p-B2rjzSAdXHsc4d0-27" value="&lt;font style=&quot;font-size: 8px;&quot; face=&quot;メイリオ&quot;&gt;$$1\rightarrow 2$$&lt;/font&gt;" style="rounded=1;whiteSpace=wrap;html=1;" vertex="1" parent="1">
          <mxGeometry x="560" y="840" width="40" height="40" as="geometry" />
        </mxCell>
        <mxCell id="gt6p-B2rjzSAdXHsc4d0-28" value="&lt;font style=&quot;font-size: 8px;&quot; face=&quot;メイリオ&quot;&gt;$$A \rightarrow 3$$&lt;/font&gt;&lt;div&gt;&lt;font style=&quot;font-size: 8px;&quot; face=&quot;メイリオ&quot;&gt;$$(2 \rightarrow 3)$$&lt;/font&gt;&lt;/div&gt;" style="rounded=1;whiteSpace=wrap;html=1;" vertex="1" parent="1">
          <mxGeometry x="480" y="720" width="40" height="40" as="geometry" />
        </mxCell>
        <mxCell id="gt6p-B2rjzSAdXHsc4d0-36" value="&lt;font style=&quot;font-size: 8px;&quot; face=&quot;メイリオ&quot;&gt;$$2 \rightarrow 0$$&lt;/font&gt;" style="rounded=1;whiteSpace=wrap;html=1;" vertex="1" parent="1">
          <mxGeometry x="80" y="840" width="40" height="40" as="geometry" />
        </mxCell>
        <mxCell id="gt6p-B2rjzSAdXHsc4d0-37" value="&lt;font style=&quot;font-size: 8px;&quot; face=&quot;メイリオ&quot;&gt;$$0\rightarrow 1$$&lt;/font&gt;" style="rounded=1;whiteSpace=wrap;html=1;" vertex="1" parent="1">
          <mxGeometry x="160" y="840" width="40" height="40" as="geometry" />
        </mxCell>
        <mxCell id="gt6p-B2rjzSAdXHsc4d0-38" value="&lt;font style=&quot;font-size: 8px;&quot; face=&quot;メイリオ&quot;&gt;$$1\rightarrow 2$$&lt;/font&gt;" style="rounded=1;whiteSpace=wrap;html=1;" vertex="1" parent="1">
          <mxGeometry x="240" y="840" width="40" height="40" as="geometry" />
        </mxCell>
      </root>
    </mxGraphModel>
  </diagram>
  <diagram name="branchingの構築" id="DYYVoEqo7WNfkQLMEbTQ">
    <mxGraphModel dx="1254" dy="666" grid="1" gridSize="10" guides="1" tooltips="1" connect="1" arrows="1" fold="1" page="1" pageScale="1" pageWidth="1654" pageHeight="2336" math="1" shadow="0">
      <root>
        <mxCell id="dVBMem05Sig3Cw7kvz5X-0" />
        <mxCell id="dVBMem05Sig3Cw7kvz5X-1" parent="dVBMem05Sig3Cw7kvz5X-0" />
        <mxCell id="TIF3XkMPPSmiBrTDmFXG-0" value="" style="endArrow=classic;html=1;rounded=0;exitX=0.5;exitY=1;exitDx=0;exitDy=0;strokeWidth=2;fillColor=#f8cecc;strokeColor=#000000;labelBorderColor=none;entryX=0.5;entryY=0;entryDx=0;entryDy=0;" edge="1" parent="dVBMem05Sig3Cw7kvz5X-1">
          <mxGeometry width="50" height="50" relative="1" as="geometry">
            <mxPoint x="380" y="280" as="sourcePoint" />
            <mxPoint x="460" y="360" as="targetPoint" />
          </mxGeometry>
        </mxCell>
        <mxCell id="TIF3XkMPPSmiBrTDmFXG-1" value="" style="endArrow=classic;html=1;rounded=0;exitX=0.5;exitY=1;exitDx=0;exitDy=0;strokeWidth=2;fillColor=#f8cecc;strokeColor=#000000;labelBorderColor=none;entryX=0.5;entryY=0;entryDx=0;entryDy=0;" edge="1" parent="dVBMem05Sig3Cw7kvz5X-1">
          <mxGeometry width="50" height="50" relative="1" as="geometry">
            <mxPoint x="380" y="280" as="sourcePoint" />
            <mxPoint x="540" y="360" as="targetPoint" />
          </mxGeometry>
        </mxCell>
        <mxCell id="TIF3XkMPPSmiBrTDmFXG-2" value="" style="endArrow=classic;html=1;rounded=0;exitX=0.5;exitY=1;exitDx=0;exitDy=0;strokeWidth=2;fillColor=#f8cecc;strokeColor=#000000;labelBorderColor=none;entryX=0.5;entryY=0;entryDx=0;entryDy=0;" edge="1" parent="dVBMem05Sig3Cw7kvz5X-1">
          <mxGeometry width="50" height="50" relative="1" as="geometry">
            <mxPoint x="380" y="280" as="sourcePoint" />
            <mxPoint x="380" y="360" as="targetPoint" />
          </mxGeometry>
        </mxCell>
        <mxCell id="TIF3XkMPPSmiBrTDmFXG-3" value="" style="endArrow=classic;html=1;rounded=0;strokeWidth=2;fillColor=#f8cecc;strokeColor=#000000;labelBorderColor=none;entryX=0.5;entryY=0;entryDx=0;entryDy=0;exitX=0.5;exitY=1;exitDx=0;exitDy=0;" edge="1" parent="dVBMem05Sig3Cw7kvz5X-1">
          <mxGeometry width="50" height="50" relative="1" as="geometry">
            <mxPoint x="380" y="200" as="sourcePoint" />
            <mxPoint x="380" y="240" as="targetPoint" />
          </mxGeometry>
        </mxCell>
        <mxCell id="TIF3XkMPPSmiBrTDmFXG-4" value="" style="endArrow=classic;html=1;rounded=0;strokeWidth=2;fillColor=#f8cecc;strokeColor=#000000;labelBorderColor=none;entryX=0.5;entryY=0;entryDx=0;entryDy=0;exitX=0.5;exitY=1;exitDx=0;exitDy=0;" edge="1" parent="dVBMem05Sig3Cw7kvz5X-1">
          <mxGeometry width="50" height="50" relative="1" as="geometry">
            <mxPoint x="380" y="200" as="sourcePoint" />
            <mxPoint x="460" y="240" as="targetPoint" />
          </mxGeometry>
        </mxCell>
        <mxCell id="TIF3XkMPPSmiBrTDmFXG-5" value="" style="endArrow=classic;html=1;rounded=0;strokeWidth=2;fillColor=#f8cecc;strokeColor=#000000;labelBorderColor=none;entryX=0.5;entryY=0;entryDx=0;entryDy=0;exitX=0.5;exitY=1;exitDx=0;exitDy=0;" edge="1" parent="dVBMem05Sig3Cw7kvz5X-1">
          <mxGeometry width="50" height="50" relative="1" as="geometry">
            <mxPoint x="380" y="120" as="sourcePoint" />
            <mxPoint x="380" y="160" as="targetPoint" />
          </mxGeometry>
        </mxCell>
        <mxCell id="TIF3XkMPPSmiBrTDmFXG-6" value="" style="endArrow=classic;html=1;rounded=0;strokeWidth=2;fillColor=#f8cecc;strokeColor=#FF0000;labelBorderColor=none;entryX=0.5;entryY=0;entryDx=0;entryDy=0;exitX=0.5;exitY=1;exitDx=0;exitDy=0;" edge="1" parent="dVBMem05Sig3Cw7kvz5X-1">
          <mxGeometry width="50" height="50" relative="1" as="geometry">
            <mxPoint x="380" y="120" as="sourcePoint" />
            <mxPoint x="540" y="160" as="targetPoint" />
          </mxGeometry>
        </mxCell>
        <mxCell id="TIF3XkMPPSmiBrTDmFXG-7" value="" style="endArrow=classic;html=1;rounded=0;strokeWidth=2;fillColor=#f8cecc;strokeColor=#000000;labelBorderColor=none;entryX=0.5;entryY=0;entryDx=0;entryDy=0;exitX=0.5;exitY=1;exitDx=0;exitDy=0;" edge="1" parent="dVBMem05Sig3Cw7kvz5X-1">
          <mxGeometry width="50" height="50" relative="1" as="geometry">
            <mxPoint x="380" y="120" as="sourcePoint" />
            <mxPoint x="460" y="160" as="targetPoint" />
          </mxGeometry>
        </mxCell>
        <mxCell id="TIF3XkMPPSmiBrTDmFXG-8" value="&lt;font style=&quot;font-size: 8px;&quot; face=&quot;メイリオ&quot;&gt;$$3 \rightarrow A$$&lt;/font&gt;&lt;div&gt;&lt;font style=&quot;font-size: 8px;&quot; face=&quot;メイリオ&quot;&gt;$$(3 \rightarrow 1)$$&lt;/font&gt;&lt;/div&gt;" style="rounded=1;whiteSpace=wrap;html=1;" vertex="1" parent="dVBMem05Sig3Cw7kvz5X-1">
          <mxGeometry x="360" y="240" width="40" height="40" as="geometry" />
        </mxCell>
        <mxCell id="TIF3XkMPPSmiBrTDmFXG-9" value="&lt;font style=&quot;font-size: 8px;&quot; face=&quot;メイリオ&quot;&gt;$$2 \rightarrow 0$$&lt;/font&gt;" style="rounded=1;whiteSpace=wrap;html=1;" vertex="1" parent="dVBMem05Sig3Cw7kvz5X-1">
          <mxGeometry x="360" y="360" width="40" height="40" as="geometry" />
        </mxCell>
        <mxCell id="TIF3XkMPPSmiBrTDmFXG-10" value="&lt;font style=&quot;font-size: 8px;&quot; face=&quot;メイリオ&quot;&gt;$$0\rightarrow 1$$&lt;/font&gt;" style="rounded=1;whiteSpace=wrap;html=1;" vertex="1" parent="dVBMem05Sig3Cw7kvz5X-1">
          <mxGeometry x="440" y="360" width="40" height="40" as="geometry" />
        </mxCell>
        <mxCell id="TIF3XkMPPSmiBrTDmFXG-11" value="&lt;font style=&quot;font-size: 8px;&quot; face=&quot;メイリオ&quot;&gt;$$1\rightarrow 2$$&lt;/font&gt;" style="rounded=1;whiteSpace=wrap;html=1;" vertex="1" parent="dVBMem05Sig3Cw7kvz5X-1">
          <mxGeometry x="520" y="360" width="40" height="40" as="geometry" />
        </mxCell>
        <mxCell id="TIF3XkMPPSmiBrTDmFXG-12" value="&lt;font style=&quot;font-size: 8px;&quot; face=&quot;メイリオ&quot;&gt;$$A \rightarrow 3$$&lt;/font&gt;&lt;div&gt;&lt;font style=&quot;font-size: 8px;&quot; face=&quot;メイリオ&quot;&gt;$$(2 \rightarrow 3)$$&lt;/font&gt;&lt;/div&gt;" style="rounded=1;whiteSpace=wrap;html=1;" vertex="1" parent="dVBMem05Sig3Cw7kvz5X-1">
          <mxGeometry x="440" y="240" width="40" height="40" as="geometry" />
        </mxCell>
        <mxCell id="TIF3XkMPPSmiBrTDmFXG-13" value="&lt;font style=&quot;font-size: 8px;&quot; face=&quot;メイリオ&quot;&gt;$$4 \rightarrow B$$&lt;/font&gt;&lt;div&gt;&lt;font style=&quot;font-size: 8px;&quot; face=&quot;メイリオ&quot;&gt;$$(4 \rightarrow 2)$$&lt;/font&gt;&lt;/div&gt;" style="rounded=1;whiteSpace=wrap;html=1;" vertex="1" parent="dVBMem05Sig3Cw7kvz5X-1">
          <mxGeometry x="360" y="160" width="40" height="40" as="geometry" />
        </mxCell>
        <mxCell id="TIF3XkMPPSmiBrTDmFXG-14" value="&lt;font style=&quot;font-size: 8px;&quot; face=&quot;メイリオ&quot;&gt;$$B \rightarrow 5$$&lt;/font&gt;&lt;div&gt;&lt;font style=&quot;font-size: 8px;&quot; face=&quot;メイリオ&quot;&gt;$$(3 \rightarrow 5)$$&lt;/font&gt;&lt;/div&gt;" style="rounded=1;whiteSpace=wrap;html=1;strokeColor=#FF0000;" vertex="1" parent="dVBMem05Sig3Cw7kvz5X-1">
          <mxGeometry x="520" y="160" width="40" height="40" as="geometry" />
        </mxCell>
        <mxCell id="TIF3XkMPPSmiBrTDmFXG-15" value="&lt;font style=&quot;font-size: 8px;&quot; face=&quot;メイリオ&quot;&gt;$$5\rightarrow 4$$&lt;/font&gt;" style="rounded=1;whiteSpace=wrap;html=1;" vertex="1" parent="dVBMem05Sig3Cw7kvz5X-1">
          <mxGeometry x="440" y="160" width="40" height="40" as="geometry" />
        </mxCell>
        <mxCell id="TIF3XkMPPSmiBrTDmFXG-16" value="&lt;font style=&quot;font-size: 8px;&quot; face=&quot;メイリオ&quot;&gt;$$6 \rightarrow C$$&lt;/font&gt;&lt;div&gt;&lt;font style=&quot;font-size: 8px;&quot; face=&quot;メイリオ&quot;&gt;$$(6 \rightarrow 4)$$&lt;/font&gt;&lt;/div&gt;" style="rounded=1;whiteSpace=wrap;html=1;strokeColor=#FF0000;" vertex="1" parent="dVBMem05Sig3Cw7kvz5X-1">
          <mxGeometry x="360" y="80" width="40" height="40" as="geometry" />
        </mxCell>
        <mxCell id="TIF3XkMPPSmiBrTDmFXG-17" value="&lt;font style=&quot;font-size: 8px;&quot; face=&quot;メイリオ&quot;&gt;$$C \rightarrow 6$$&lt;/font&gt;&lt;div&gt;&lt;font style=&quot;font-size: 8px;&quot; face=&quot;メイリオ&quot;&gt;$$(5 \rightarrow 6)$$&lt;/font&gt;&lt;/div&gt;" style="rounded=1;whiteSpace=wrap;html=1;" vertex="1" parent="dVBMem05Sig3Cw7kvz5X-1">
          <mxGeometry x="440" y="80" width="40" height="40" as="geometry" />
        </mxCell>
        <mxCell id="TIF3XkMPPSmiBrTDmFXG-18" value="" style="endArrow=classic;html=1;rounded=0;exitX=0.5;exitY=1;exitDx=0;exitDy=0;strokeWidth=2;fillColor=#f8cecc;strokeColor=#000000;labelBorderColor=none;entryX=0.5;entryY=0;entryDx=0;entryDy=0;" edge="1" parent="dVBMem05Sig3Cw7kvz5X-1">
          <mxGeometry width="50" height="50" relative="1" as="geometry">
            <mxPoint x="100" y="280" as="sourcePoint" />
            <mxPoint x="180" y="360" as="targetPoint" />
          </mxGeometry>
        </mxCell>
        <mxCell id="TIF3XkMPPSmiBrTDmFXG-19" value="" style="endArrow=classic;html=1;rounded=0;exitX=0.5;exitY=1;exitDx=0;exitDy=0;strokeWidth=2;fillColor=#f8cecc;strokeColor=#000000;labelBorderColor=none;entryX=0.5;entryY=0;entryDx=0;entryDy=0;" edge="1" parent="dVBMem05Sig3Cw7kvz5X-1">
          <mxGeometry width="50" height="50" relative="1" as="geometry">
            <mxPoint x="100" y="280" as="sourcePoint" />
            <mxPoint x="260" y="360" as="targetPoint" />
          </mxGeometry>
        </mxCell>
        <mxCell id="TIF3XkMPPSmiBrTDmFXG-20" value="" style="endArrow=classic;html=1;rounded=0;exitX=0.5;exitY=1;exitDx=0;exitDy=0;strokeWidth=2;fillColor=#f8cecc;strokeColor=#000000;labelBorderColor=none;entryX=0.5;entryY=0;entryDx=0;entryDy=0;" edge="1" parent="dVBMem05Sig3Cw7kvz5X-1">
          <mxGeometry width="50" height="50" relative="1" as="geometry">
            <mxPoint x="100" y="280" as="sourcePoint" />
            <mxPoint x="100" y="360" as="targetPoint" />
          </mxGeometry>
        </mxCell>
        <mxCell id="TIF3XkMPPSmiBrTDmFXG-21" value="" style="endArrow=classic;html=1;rounded=0;strokeWidth=2;fillColor=#f8cecc;strokeColor=#000000;labelBorderColor=none;entryX=0.5;entryY=0;entryDx=0;entryDy=0;exitX=0.5;exitY=1;exitDx=0;exitDy=0;" edge="1" parent="dVBMem05Sig3Cw7kvz5X-1">
          <mxGeometry width="50" height="50" relative="1" as="geometry">
            <mxPoint x="100" y="200" as="sourcePoint" />
            <mxPoint x="100" y="240" as="targetPoint" />
          </mxGeometry>
        </mxCell>
        <mxCell id="TIF3XkMPPSmiBrTDmFXG-22" value="" style="endArrow=classic;html=1;rounded=0;strokeWidth=2;fillColor=#f8cecc;strokeColor=#000000;labelBorderColor=none;entryX=0.5;entryY=0;entryDx=0;entryDy=0;exitX=0.5;exitY=1;exitDx=0;exitDy=0;" edge="1" parent="dVBMem05Sig3Cw7kvz5X-1">
          <mxGeometry width="50" height="50" relative="1" as="geometry">
            <mxPoint x="100" y="200" as="sourcePoint" />
            <mxPoint x="180" y="240" as="targetPoint" />
          </mxGeometry>
        </mxCell>
        <mxCell id="TIF3XkMPPSmiBrTDmFXG-23" value="" style="endArrow=classic;html=1;rounded=0;strokeWidth=2;fillColor=#f8cecc;strokeColor=#000000;labelBorderColor=none;entryX=0.5;entryY=0;entryDx=0;entryDy=0;exitX=0.5;exitY=1;exitDx=0;exitDy=0;" edge="1" parent="dVBMem05Sig3Cw7kvz5X-1">
          <mxGeometry width="50" height="50" relative="1" as="geometry">
            <mxPoint x="100" y="120" as="sourcePoint" />
            <mxPoint x="100" y="160" as="targetPoint" />
          </mxGeometry>
        </mxCell>
        <mxCell id="TIF3XkMPPSmiBrTDmFXG-24" value="" style="endArrow=classic;html=1;rounded=0;strokeWidth=2;fillColor=#f8cecc;strokeColor=#000000;labelBorderColor=none;entryX=0.5;entryY=0;entryDx=0;entryDy=0;exitX=0.5;exitY=1;exitDx=0;exitDy=0;" edge="1" parent="dVBMem05Sig3Cw7kvz5X-1">
          <mxGeometry width="50" height="50" relative="1" as="geometry">
            <mxPoint x="100" y="120" as="sourcePoint" />
            <mxPoint x="260" y="160" as="targetPoint" />
          </mxGeometry>
        </mxCell>
        <mxCell id="TIF3XkMPPSmiBrTDmFXG-25" value="" style="endArrow=classic;html=1;rounded=0;strokeWidth=2;fillColor=#f8cecc;strokeColor=#000000;labelBorderColor=none;entryX=0.5;entryY=0;entryDx=0;entryDy=0;exitX=0.5;exitY=1;exitDx=0;exitDy=0;" edge="1" parent="dVBMem05Sig3Cw7kvz5X-1">
          <mxGeometry width="50" height="50" relative="1" as="geometry">
            <mxPoint x="100" y="120" as="sourcePoint" />
            <mxPoint x="180" y="160" as="targetPoint" />
          </mxGeometry>
        </mxCell>
        <mxCell id="TIF3XkMPPSmiBrTDmFXG-26" value="&lt;font style=&quot;font-size: 8px;&quot; face=&quot;メイリオ&quot;&gt;$$3 \rightarrow A$$&lt;/font&gt;&lt;div&gt;&lt;font style=&quot;font-size: 8px;&quot; face=&quot;メイリオ&quot;&gt;$$(3 \rightarrow 1)$$&lt;/font&gt;&lt;/div&gt;" style="rounded=1;whiteSpace=wrap;html=1;" vertex="1" parent="dVBMem05Sig3Cw7kvz5X-1">
          <mxGeometry x="80" y="240" width="40" height="40" as="geometry" />
        </mxCell>
        <mxCell id="TIF3XkMPPSmiBrTDmFXG-27" value="&lt;font style=&quot;font-size: 8px;&quot; face=&quot;メイリオ&quot;&gt;$$2 \rightarrow 0$$&lt;/font&gt;" style="rounded=1;whiteSpace=wrap;html=1;" vertex="1" parent="dVBMem05Sig3Cw7kvz5X-1">
          <mxGeometry x="80" y="360" width="40" height="40" as="geometry" />
        </mxCell>
        <mxCell id="TIF3XkMPPSmiBrTDmFXG-28" value="&lt;font style=&quot;font-size: 8px;&quot; face=&quot;メイリオ&quot;&gt;$$0\rightarrow 1$$&lt;/font&gt;" style="rounded=1;whiteSpace=wrap;html=1;" vertex="1" parent="dVBMem05Sig3Cw7kvz5X-1">
          <mxGeometry x="160" y="360" width="40" height="40" as="geometry" />
        </mxCell>
        <mxCell id="TIF3XkMPPSmiBrTDmFXG-29" value="&lt;font style=&quot;font-size: 8px;&quot; face=&quot;メイリオ&quot;&gt;$$1\rightarrow 2$$&lt;/font&gt;" style="rounded=1;whiteSpace=wrap;html=1;" vertex="1" parent="dVBMem05Sig3Cw7kvz5X-1">
          <mxGeometry x="240" y="360" width="40" height="40" as="geometry" />
        </mxCell>
        <mxCell id="TIF3XkMPPSmiBrTDmFXG-30" value="&lt;font style=&quot;font-size: 8px;&quot; face=&quot;メイリオ&quot;&gt;$$A \rightarrow 3$$&lt;/font&gt;&lt;div&gt;&lt;font style=&quot;font-size: 8px;&quot; face=&quot;メイリオ&quot;&gt;$$(2 \rightarrow 3)$$&lt;/font&gt;&lt;/div&gt;" style="rounded=1;whiteSpace=wrap;html=1;" vertex="1" parent="dVBMem05Sig3Cw7kvz5X-1">
          <mxGeometry x="160" y="240" width="40" height="40" as="geometry" />
        </mxCell>
        <mxCell id="TIF3XkMPPSmiBrTDmFXG-31" value="&lt;font style=&quot;font-size: 8px;&quot; face=&quot;メイリオ&quot;&gt;$$4 \rightarrow B$$&lt;/font&gt;&lt;div&gt;&lt;font style=&quot;font-size: 8px;&quot; face=&quot;メイリオ&quot;&gt;$$(4 \rightarrow 2)$$&lt;/font&gt;&lt;/div&gt;" style="rounded=1;whiteSpace=wrap;html=1;" vertex="1" parent="dVBMem05Sig3Cw7kvz5X-1">
          <mxGeometry x="80" y="160" width="40" height="40" as="geometry" />
        </mxCell>
        <mxCell id="TIF3XkMPPSmiBrTDmFXG-32" value="&lt;font style=&quot;font-size: 8px;&quot; face=&quot;メイリオ&quot;&gt;$$B \rightarrow 5$$&lt;/font&gt;&lt;div&gt;&lt;font style=&quot;font-size: 8px;&quot; face=&quot;メイリオ&quot;&gt;$$(3 \rightarrow 5)$$&lt;/font&gt;&lt;/div&gt;" style="rounded=1;whiteSpace=wrap;html=1;" vertex="1" parent="dVBMem05Sig3Cw7kvz5X-1">
          <mxGeometry x="240" y="160" width="40" height="40" as="geometry" />
        </mxCell>
        <mxCell id="TIF3XkMPPSmiBrTDmFXG-33" value="&lt;font style=&quot;font-size: 8px;&quot; face=&quot;メイリオ&quot;&gt;$$5\rightarrow 4$$&lt;/font&gt;" style="rounded=1;whiteSpace=wrap;html=1;" vertex="1" parent="dVBMem05Sig3Cw7kvz5X-1">
          <mxGeometry x="160" y="160" width="40" height="40" as="geometry" />
        </mxCell>
        <mxCell id="TIF3XkMPPSmiBrTDmFXG-34" value="&lt;font style=&quot;font-size: 8px;&quot; face=&quot;メイリオ&quot;&gt;$$6 \rightarrow C$$&lt;/font&gt;&lt;div&gt;&lt;font style=&quot;font-size: 8px;&quot; face=&quot;メイリオ&quot;&gt;$$(6 \rightarrow 4)$$&lt;/font&gt;&lt;/div&gt;" style="rounded=1;whiteSpace=wrap;html=1;" vertex="1" parent="dVBMem05Sig3Cw7kvz5X-1">
          <mxGeometry x="80" y="80" width="40" height="40" as="geometry" />
        </mxCell>
        <mxCell id="TIF3XkMPPSmiBrTDmFXG-35" value="&lt;font style=&quot;font-size: 8px;&quot; face=&quot;メイリオ&quot;&gt;$$C \rightarrow 6$$&lt;/font&gt;&lt;div&gt;&lt;font style=&quot;font-size: 8px;&quot; face=&quot;メイリオ&quot;&gt;$$(5 \rightarrow 6)$$&lt;/font&gt;&lt;/div&gt;" style="rounded=1;whiteSpace=wrap;html=1;" vertex="1" parent="dVBMem05Sig3Cw7kvz5X-1">
          <mxGeometry x="160" y="80" width="40" height="40" as="geometry" />
        </mxCell>
        <mxCell id="TIF3XkMPPSmiBrTDmFXG-36" value="" style="endArrow=classic;html=1;rounded=0;exitX=0.5;exitY=1;exitDx=0;exitDy=0;strokeWidth=2;fillColor=#f8cecc;strokeColor=#000000;labelBorderColor=none;entryX=0.5;entryY=0;entryDx=0;entryDy=0;" edge="1" parent="dVBMem05Sig3Cw7kvz5X-1">
          <mxGeometry width="50" height="50" relative="1" as="geometry">
            <mxPoint x="700" y="280" as="sourcePoint" />
            <mxPoint x="780" y="360" as="targetPoint" />
          </mxGeometry>
        </mxCell>
        <mxCell id="TIF3XkMPPSmiBrTDmFXG-37" value="" style="endArrow=classic;html=1;rounded=0;exitX=0.5;exitY=1;exitDx=0;exitDy=0;strokeWidth=2;fillColor=#f8cecc;strokeColor=#000000;labelBorderColor=none;entryX=0.5;entryY=0;entryDx=0;entryDy=0;" edge="1" parent="dVBMem05Sig3Cw7kvz5X-1">
          <mxGeometry width="50" height="50" relative="1" as="geometry">
            <mxPoint x="700" y="280" as="sourcePoint" />
            <mxPoint x="860" y="360" as="targetPoint" />
          </mxGeometry>
        </mxCell>
        <mxCell id="TIF3XkMPPSmiBrTDmFXG-38" value="" style="endArrow=classic;html=1;rounded=0;exitX=0.5;exitY=1;exitDx=0;exitDy=0;strokeWidth=2;fillColor=#f8cecc;strokeColor=#000000;labelBorderColor=none;entryX=0.5;entryY=0;entryDx=0;entryDy=0;" edge="1" parent="dVBMem05Sig3Cw7kvz5X-1">
          <mxGeometry width="50" height="50" relative="1" as="geometry">
            <mxPoint x="700" y="280" as="sourcePoint" />
            <mxPoint x="700" y="360" as="targetPoint" />
          </mxGeometry>
        </mxCell>
        <mxCell id="TIF3XkMPPSmiBrTDmFXG-39" value="" style="endArrow=classic;html=1;rounded=0;strokeWidth=2;fillColor=#f8cecc;strokeColor=#000000;labelBorderColor=none;entryX=0.5;entryY=0;entryDx=0;entryDy=0;exitX=0.5;exitY=1;exitDx=0;exitDy=0;" edge="1" parent="dVBMem05Sig3Cw7kvz5X-1">
          <mxGeometry width="50" height="50" relative="1" as="geometry">
            <mxPoint x="700" y="200" as="sourcePoint" />
            <mxPoint x="700" y="240" as="targetPoint" />
          </mxGeometry>
        </mxCell>
        <mxCell id="TIF3XkMPPSmiBrTDmFXG-40" value="" style="endArrow=classic;html=1;rounded=0;strokeWidth=2;fillColor=#f8cecc;strokeColor=#000000;labelBorderColor=none;entryX=0.5;entryY=0;entryDx=0;entryDy=0;exitX=0.5;exitY=1;exitDx=0;exitDy=0;" edge="1" parent="dVBMem05Sig3Cw7kvz5X-1">
          <mxGeometry width="50" height="50" relative="1" as="geometry">
            <mxPoint x="700" y="200" as="sourcePoint" />
            <mxPoint x="780" y="240" as="targetPoint" />
          </mxGeometry>
        </mxCell>
        <mxCell id="TIF3XkMPPSmiBrTDmFXG-44" value="&lt;font style=&quot;font-size: 8px;&quot; face=&quot;メイリオ&quot;&gt;$$3 \rightarrow A$$&lt;/font&gt;&lt;div&gt;&lt;font style=&quot;font-size: 8px;&quot; face=&quot;メイリオ&quot;&gt;$$(3 \rightarrow 1)$$&lt;/font&gt;&lt;/div&gt;" style="rounded=1;whiteSpace=wrap;html=1;" vertex="1" parent="dVBMem05Sig3Cw7kvz5X-1">
          <mxGeometry x="680" y="240" width="40" height="40" as="geometry" />
        </mxCell>
        <mxCell id="TIF3XkMPPSmiBrTDmFXG-45" value="&lt;font style=&quot;font-size: 8px;&quot; face=&quot;メイリオ&quot;&gt;$$2 \rightarrow 0$$&lt;/font&gt;" style="rounded=1;whiteSpace=wrap;html=1;" vertex="1" parent="dVBMem05Sig3Cw7kvz5X-1">
          <mxGeometry x="680" y="360" width="40" height="40" as="geometry" />
        </mxCell>
        <mxCell id="TIF3XkMPPSmiBrTDmFXG-46" value="&lt;font style=&quot;font-size: 8px;&quot; face=&quot;メイリオ&quot;&gt;$$0\rightarrow 1$$&lt;/font&gt;" style="rounded=1;whiteSpace=wrap;html=1;" vertex="1" parent="dVBMem05Sig3Cw7kvz5X-1">
          <mxGeometry x="760" y="360" width="40" height="40" as="geometry" />
        </mxCell>
        <mxCell id="TIF3XkMPPSmiBrTDmFXG-47" value="&lt;font style=&quot;font-size: 8px;&quot; face=&quot;メイリオ&quot;&gt;$$1\rightarrow 2$$&lt;/font&gt;" style="rounded=1;whiteSpace=wrap;html=1;" vertex="1" parent="dVBMem05Sig3Cw7kvz5X-1">
          <mxGeometry x="840" y="360" width="40" height="40" as="geometry" />
        </mxCell>
        <mxCell id="TIF3XkMPPSmiBrTDmFXG-48" value="&lt;font style=&quot;font-size: 8px;&quot; face=&quot;メイリオ&quot;&gt;$$A \rightarrow 3$$&lt;/font&gt;&lt;div&gt;&lt;font style=&quot;font-size: 8px;&quot; face=&quot;メイリオ&quot;&gt;$$(2 \rightarrow 3)$$&lt;/font&gt;&lt;/div&gt;" style="rounded=1;whiteSpace=wrap;html=1;" vertex="1" parent="dVBMem05Sig3Cw7kvz5X-1">
          <mxGeometry x="760" y="240" width="40" height="40" as="geometry" />
        </mxCell>
        <mxCell id="TIF3XkMPPSmiBrTDmFXG-49" value="&lt;font style=&quot;font-size: 8px;&quot; face=&quot;メイリオ&quot;&gt;$$4 \rightarrow B$$&lt;/font&gt;&lt;div&gt;&lt;font style=&quot;font-size: 8px;&quot; face=&quot;メイリオ&quot;&gt;$$(4 \rightarrow 2)$$&lt;/font&gt;&lt;/div&gt;" style="rounded=1;whiteSpace=wrap;html=1;" vertex="1" parent="dVBMem05Sig3Cw7kvz5X-1">
          <mxGeometry x="680" y="160" width="40" height="40" as="geometry" />
        </mxCell>
        <mxCell id="TIF3XkMPPSmiBrTDmFXG-51" value="&lt;font style=&quot;font-size: 8px;&quot; face=&quot;メイリオ&quot;&gt;$$5\rightarrow 4$$&lt;/font&gt;" style="rounded=1;whiteSpace=wrap;html=1;" vertex="1" parent="dVBMem05Sig3Cw7kvz5X-1">
          <mxGeometry x="760" y="160" width="40" height="40" as="geometry" />
        </mxCell>
        <mxCell id="TIF3XkMPPSmiBrTDmFXG-53" value="&lt;font style=&quot;font-size: 8px;&quot; face=&quot;メイリオ&quot;&gt;$$C \rightarrow 6$$&lt;/font&gt;&lt;div&gt;&lt;font style=&quot;font-size: 8px;&quot; face=&quot;メイリオ&quot;&gt;$$(5 \rightarrow 6)$$&lt;/font&gt;&lt;/div&gt;" style="rounded=1;whiteSpace=wrap;html=1;" vertex="1" parent="dVBMem05Sig3Cw7kvz5X-1">
          <mxGeometry x="760" y="80" width="40" height="40" as="geometry" />
        </mxCell>
        <mxCell id="BQHNbAb8vaV9v1NCeSe9-0" value="&lt;font&gt;0&lt;/font&gt;" style="ellipse;whiteSpace=wrap;html=1;aspect=fixed;fontFamily=メイリオ;fontSize=20;" vertex="1" parent="dVBMem05Sig3Cw7kvz5X-1">
          <mxGeometry x="80" y="520" width="40" height="40" as="geometry" />
        </mxCell>
        <mxCell id="BQHNbAb8vaV9v1NCeSe9-1" value="2" style="ellipse;whiteSpace=wrap;html=1;aspect=fixed;fontFamily=メイリオ;fontSize=20;" vertex="1" parent="dVBMem05Sig3Cw7kvz5X-1">
          <mxGeometry x="80" y="640" width="40" height="40" as="geometry" />
        </mxCell>
        <mxCell id="BQHNbAb8vaV9v1NCeSe9-2" value="1" style="ellipse;whiteSpace=wrap;html=1;aspect=fixed;fontFamily=メイリオ;fontSize=20;" vertex="1" parent="dVBMem05Sig3Cw7kvz5X-1">
          <mxGeometry x="240" y="520" width="40" height="40" as="geometry" />
        </mxCell>
        <mxCell id="BQHNbAb8vaV9v1NCeSe9-3" value="4" style="ellipse;whiteSpace=wrap;html=1;aspect=fixed;fontFamily=メイリオ;fontSize=20;" vertex="1" parent="dVBMem05Sig3Cw7kvz5X-1">
          <mxGeometry x="80" y="760" width="40" height="40" as="geometry" />
        </mxCell>
        <mxCell id="BQHNbAb8vaV9v1NCeSe9-4" value="3" style="ellipse;whiteSpace=wrap;html=1;aspect=fixed;fontFamily=メイリオ;fontSize=20;" vertex="1" parent="dVBMem05Sig3Cw7kvz5X-1">
          <mxGeometry x="240" y="640" width="40" height="40" as="geometry" />
        </mxCell>
        <mxCell id="BQHNbAb8vaV9v1NCeSe9-5" value="5" style="ellipse;whiteSpace=wrap;html=1;aspect=fixed;fontFamily=メイリオ;fontSize=20;" vertex="1" parent="dVBMem05Sig3Cw7kvz5X-1">
          <mxGeometry x="240" y="760" width="40" height="40" as="geometry" />
        </mxCell>
        <mxCell id="BQHNbAb8vaV9v1NCeSe9-6" value="" style="endArrow=classic;html=1;rounded=0;entryX=0.5;entryY=1;entryDx=0;entryDy=0;strokeWidth=2;exitX=0.5;exitY=0;exitDx=0;exitDy=0;fillColor=#f8cecc;strokeColor=#000000;" edge="1" parent="dVBMem05Sig3Cw7kvz5X-1" source="BQHNbAb8vaV9v1NCeSe9-1" target="BQHNbAb8vaV9v1NCeSe9-0">
          <mxGeometry width="50" height="50" relative="1" as="geometry">
            <mxPoint x="50" y="610" as="sourcePoint" />
            <mxPoint x="700" y="820" as="targetPoint" />
          </mxGeometry>
        </mxCell>
        <mxCell id="BQHNbAb8vaV9v1NCeSe9-7" value="" style="endArrow=classic;html=1;rounded=0;strokeWidth=2;exitX=1;exitY=0.5;exitDx=0;exitDy=0;entryX=0;entryY=0.5;entryDx=0;entryDy=0;strokeColor=#000000;" edge="1" parent="dVBMem05Sig3Cw7kvz5X-1" source="BQHNbAb8vaV9v1NCeSe9-0" target="BQHNbAb8vaV9v1NCeSe9-2">
          <mxGeometry width="50" height="50" relative="1" as="geometry">
            <mxPoint x="200" y="600" as="sourcePoint" />
            <mxPoint x="150" y="600" as="targetPoint" />
          </mxGeometry>
        </mxCell>
        <mxCell id="BQHNbAb8vaV9v1NCeSe9-8" value="" style="endArrow=classic;html=1;rounded=0;exitX=0.5;exitY=0;exitDx=0;exitDy=0;entryX=0.5;entryY=1;entryDx=0;entryDy=0;strokeWidth=2;" edge="1" parent="dVBMem05Sig3Cw7kvz5X-1" source="BQHNbAb8vaV9v1NCeSe9-3" target="BQHNbAb8vaV9v1NCeSe9-1">
          <mxGeometry width="50" height="50" relative="1" as="geometry">
            <mxPoint x="149.65999999999997" y="690" as="sourcePoint" />
            <mxPoint x="149.65999999999997" y="770" as="targetPoint" />
          </mxGeometry>
        </mxCell>
        <mxCell id="BQHNbAb8vaV9v1NCeSe9-9" value="" style="endArrow=classic;html=1;rounded=0;exitX=1;exitY=0.5;exitDx=0;exitDy=0;strokeWidth=2;" edge="1" parent="dVBMem05Sig3Cw7kvz5X-1" source="BQHNbAb8vaV9v1NCeSe9-1" target="BQHNbAb8vaV9v1NCeSe9-4">
          <mxGeometry width="50" height="50" relative="1" as="geometry">
            <mxPoint x="260" y="690" as="sourcePoint" />
            <mxPoint x="140" y="690" as="targetPoint" />
          </mxGeometry>
        </mxCell>
        <mxCell id="BQHNbAb8vaV9v1NCeSe9-10" value="" style="endArrow=classic;html=1;rounded=0;exitX=0.5;exitY=0;exitDx=0;exitDy=0;entryX=0.5;entryY=1;entryDx=0;entryDy=0;strokeWidth=2;" edge="1" parent="dVBMem05Sig3Cw7kvz5X-1" source="BQHNbAb8vaV9v1NCeSe9-4" target="BQHNbAb8vaV9v1NCeSe9-2">
          <mxGeometry width="50" height="50" relative="1" as="geometry">
            <mxPoint x="280" y="780" as="sourcePoint" />
            <mxPoint x="160" y="780" as="targetPoint" />
          </mxGeometry>
        </mxCell>
        <mxCell id="BQHNbAb8vaV9v1NCeSe9-11" value="" style="endArrow=classic;html=1;rounded=0;strokeWidth=2;exitX=0.5;exitY=0;exitDx=0;exitDy=0;" edge="1" parent="dVBMem05Sig3Cw7kvz5X-1" source="BQHNbAb8vaV9v1NCeSe9-20" target="BQHNbAb8vaV9v1NCeSe9-3">
          <mxGeometry width="50" height="50" relative="1" as="geometry">
            <mxPoint x="190" y="870" as="sourcePoint" />
            <mxPoint x="250" y="790" as="targetPoint" />
          </mxGeometry>
        </mxCell>
        <mxCell id="BQHNbAb8vaV9v1NCeSe9-12" value="" style="endArrow=classic;html=1;rounded=0;entryX=1;entryY=0.5;entryDx=0;entryDy=0;strokeWidth=2;exitX=0;exitY=0.5;exitDx=0;exitDy=0;strokeColor=#007FFF;" edge="1" parent="dVBMem05Sig3Cw7kvz5X-1" source="BQHNbAb8vaV9v1NCeSe9-5" target="BQHNbAb8vaV9v1NCeSe9-3">
          <mxGeometry width="50" height="50" relative="1" as="geometry">
            <mxPoint x="292" y="830" as="sourcePoint" />
            <mxPoint x="160" y="830" as="targetPoint" />
          </mxGeometry>
        </mxCell>
        <mxCell id="BQHNbAb8vaV9v1NCeSe9-13" value="" style="endArrow=classic;html=1;rounded=0;exitX=0.5;exitY=1;exitDx=0;exitDy=0;strokeWidth=2;" edge="1" parent="dVBMem05Sig3Cw7kvz5X-1" source="BQHNbAb8vaV9v1NCeSe9-4" target="BQHNbAb8vaV9v1NCeSe9-5">
          <mxGeometry width="50" height="50" relative="1" as="geometry">
            <mxPoint x="270" y="660" as="sourcePoint" />
            <mxPoint x="360" y="660" as="targetPoint" />
          </mxGeometry>
        </mxCell>
        <mxCell id="BQHNbAb8vaV9v1NCeSe9-14" value="3" style="text;html=1;align=center;verticalAlign=middle;whiteSpace=wrap;rounded=0;fontFamily=メイリオ;fontSize=17;" vertex="1" parent="dVBMem05Sig3Cw7kvz5X-1">
          <mxGeometry x="60" y="580" width="40" height="40" as="geometry" />
        </mxCell>
        <mxCell id="BQHNbAb8vaV9v1NCeSe9-15" value="4" style="text;html=1;align=center;verticalAlign=middle;whiteSpace=wrap;rounded=0;fontFamily=メイリオ;fontSize=17;" vertex="1" parent="dVBMem05Sig3Cw7kvz5X-1">
          <mxGeometry x="260" y="580" width="40" height="40" as="geometry" />
        </mxCell>
        <mxCell id="BQHNbAb8vaV9v1NCeSe9-16" value="2" style="text;html=1;align=center;verticalAlign=middle;whiteSpace=wrap;rounded=0;fontFamily=メイリオ;fontSize=17;" vertex="1" parent="dVBMem05Sig3Cw7kvz5X-1">
          <mxGeometry x="260" y="700" width="40" height="40" as="geometry" />
        </mxCell>
        <mxCell id="BQHNbAb8vaV9v1NCeSe9-17" value="2" style="text;html=1;align=center;verticalAlign=middle;whiteSpace=wrap;rounded=0;fontFamily=メイリオ;fontSize=17;" vertex="1" parent="dVBMem05Sig3Cw7kvz5X-1">
          <mxGeometry x="60" y="700" width="40" height="40" as="geometry" />
        </mxCell>
        <mxCell id="BQHNbAb8vaV9v1NCeSe9-18" value="4" style="text;html=1;align=center;verticalAlign=middle;whiteSpace=wrap;rounded=0;fontFamily=メイリオ;fontSize=17;" vertex="1" parent="dVBMem05Sig3Cw7kvz5X-1">
          <mxGeometry x="160" y="660" width="40" height="40" as="geometry" />
        </mxCell>
        <mxCell id="BQHNbAb8vaV9v1NCeSe9-19" value="4" style="text;html=1;align=center;verticalAlign=middle;whiteSpace=wrap;rounded=0;fontFamily=メイリオ;fontSize=17;" vertex="1" parent="dVBMem05Sig3Cw7kvz5X-1">
          <mxGeometry x="160" y="780" width="40" height="40" as="geometry" />
        </mxCell>
        <mxCell id="BQHNbAb8vaV9v1NCeSe9-20" value="6" style="ellipse;whiteSpace=wrap;html=1;aspect=fixed;fontFamily=メイリオ;fontSize=20;" vertex="1" parent="dVBMem05Sig3Cw7kvz5X-1">
          <mxGeometry x="80" y="880" width="40" height="40" as="geometry" />
        </mxCell>
        <mxCell id="BQHNbAb8vaV9v1NCeSe9-21" value="" style="endArrow=classic;html=1;rounded=0;exitX=0;exitY=1;exitDx=0;exitDy=0;entryX=1;entryY=0;entryDx=0;entryDy=0;strokeWidth=2;strokeColor=#000000;" edge="1" parent="dVBMem05Sig3Cw7kvz5X-1" source="BQHNbAb8vaV9v1NCeSe9-2" target="BQHNbAb8vaV9v1NCeSe9-1">
          <mxGeometry width="50" height="50" relative="1" as="geometry">
            <mxPoint x="260" y="680" as="sourcePoint" />
            <mxPoint x="260" y="600" as="targetPoint" />
          </mxGeometry>
        </mxCell>
        <mxCell id="BQHNbAb8vaV9v1NCeSe9-22" value="4" style="text;html=1;align=center;verticalAlign=middle;whiteSpace=wrap;rounded=0;fontFamily=メイリオ;fontSize=17;" vertex="1" parent="dVBMem05Sig3Cw7kvz5X-1">
          <mxGeometry x="60" y="820" width="40" height="40" as="geometry" />
        </mxCell>
        <mxCell id="BQHNbAb8vaV9v1NCeSe9-23" value="3" style="text;html=1;align=center;verticalAlign=middle;whiteSpace=wrap;rounded=0;fontFamily=メイリオ;fontSize=17;" vertex="1" parent="dVBMem05Sig3Cw7kvz5X-1">
          <mxGeometry x="160" y="600" width="40" height="40" as="geometry" />
        </mxCell>
        <mxCell id="BQHNbAb8vaV9v1NCeSe9-24" value="4" style="text;html=1;align=center;verticalAlign=middle;whiteSpace=wrap;rounded=0;fontFamily=メイリオ;fontSize=17;" vertex="1" parent="dVBMem05Sig3Cw7kvz5X-1">
          <mxGeometry x="160" y="500" width="40" height="40" as="geometry" />
        </mxCell>
        <mxCell id="BQHNbAb8vaV9v1NCeSe9-25" value="" style="endArrow=classic;html=1;rounded=0;entryX=1;entryY=0.5;entryDx=0;entryDy=0;strokeWidth=2;exitX=0.5;exitY=1;exitDx=0;exitDy=0;strokeColor=#007FFF;" edge="1" parent="dVBMem05Sig3Cw7kvz5X-1" source="BQHNbAb8vaV9v1NCeSe9-5" target="BQHNbAb8vaV9v1NCeSe9-20">
          <mxGeometry width="50" height="50" relative="1" as="geometry">
            <mxPoint x="330" y="780" as="sourcePoint" />
            <mxPoint x="210" y="780" as="targetPoint" />
          </mxGeometry>
        </mxCell>
        <mxCell id="BQHNbAb8vaV9v1NCeSe9-26" value="4" style="text;html=1;align=center;verticalAlign=middle;whiteSpace=wrap;rounded=0;fontFamily=メイリオ;fontSize=17;" vertex="1" parent="dVBMem05Sig3Cw7kvz5X-1">
          <mxGeometry x="160" y="860" width="40" height="40" as="geometry" />
        </mxCell>
        <mxCell id="BQHNbAb8vaV9v1NCeSe9-27" value="&lt;font&gt;0&lt;/font&gt;" style="ellipse;whiteSpace=wrap;html=1;aspect=fixed;fontFamily=メイリオ;fontSize=20;" vertex="1" parent="dVBMem05Sig3Cw7kvz5X-1">
          <mxGeometry x="440" y="520" width="40" height="40" as="geometry" />
        </mxCell>
        <mxCell id="BQHNbAb8vaV9v1NCeSe9-28" value="2" style="ellipse;whiteSpace=wrap;html=1;aspect=fixed;fontFamily=メイリオ;fontSize=20;" vertex="1" parent="dVBMem05Sig3Cw7kvz5X-1">
          <mxGeometry x="440" y="640" width="40" height="40" as="geometry" />
        </mxCell>
        <mxCell id="BQHNbAb8vaV9v1NCeSe9-29" value="1" style="ellipse;whiteSpace=wrap;html=1;aspect=fixed;fontFamily=メイリオ;fontSize=20;" vertex="1" parent="dVBMem05Sig3Cw7kvz5X-1">
          <mxGeometry x="600" y="520" width="40" height="40" as="geometry" />
        </mxCell>
        <mxCell id="BQHNbAb8vaV9v1NCeSe9-30" value="4" style="ellipse;whiteSpace=wrap;html=1;aspect=fixed;fontFamily=メイリオ;fontSize=20;" vertex="1" parent="dVBMem05Sig3Cw7kvz5X-1">
          <mxGeometry x="440" y="760" width="40" height="40" as="geometry" />
        </mxCell>
        <mxCell id="BQHNbAb8vaV9v1NCeSe9-31" value="3" style="ellipse;whiteSpace=wrap;html=1;aspect=fixed;fontFamily=メイリオ;fontSize=20;" vertex="1" parent="dVBMem05Sig3Cw7kvz5X-1">
          <mxGeometry x="600" y="640" width="40" height="40" as="geometry" />
        </mxCell>
        <mxCell id="BQHNbAb8vaV9v1NCeSe9-32" value="5" style="ellipse;whiteSpace=wrap;html=1;aspect=fixed;fontFamily=メイリオ;fontSize=20;" vertex="1" parent="dVBMem05Sig3Cw7kvz5X-1">
          <mxGeometry x="600" y="760" width="40" height="40" as="geometry" />
        </mxCell>
        <mxCell id="BQHNbAb8vaV9v1NCeSe9-33" value="" style="endArrow=classic;html=1;rounded=0;entryX=0.5;entryY=1;entryDx=0;entryDy=0;strokeWidth=2;exitX=0.5;exitY=0;exitDx=0;exitDy=0;fillColor=#f8cecc;strokeColor=#000000;" edge="1" parent="dVBMem05Sig3Cw7kvz5X-1" source="BQHNbAb8vaV9v1NCeSe9-28" target="BQHNbAb8vaV9v1NCeSe9-27">
          <mxGeometry width="50" height="50" relative="1" as="geometry">
            <mxPoint x="410" y="610" as="sourcePoint" />
            <mxPoint x="1060" y="820" as="targetPoint" />
          </mxGeometry>
        </mxCell>
        <mxCell id="BQHNbAb8vaV9v1NCeSe9-34" value="" style="endArrow=classic;html=1;rounded=0;strokeWidth=2;exitX=1;exitY=0.5;exitDx=0;exitDy=0;entryX=0;entryY=0.5;entryDx=0;entryDy=0;strokeColor=#000000;" edge="1" parent="dVBMem05Sig3Cw7kvz5X-1" source="BQHNbAb8vaV9v1NCeSe9-27" target="BQHNbAb8vaV9v1NCeSe9-29">
          <mxGeometry width="50" height="50" relative="1" as="geometry">
            <mxPoint x="560" y="600" as="sourcePoint" />
            <mxPoint x="510" y="600" as="targetPoint" />
          </mxGeometry>
        </mxCell>
        <mxCell id="BQHNbAb8vaV9v1NCeSe9-35" value="" style="endArrow=classic;html=1;rounded=0;exitX=0.5;exitY=0;exitDx=0;exitDy=0;entryX=0.5;entryY=1;entryDx=0;entryDy=0;strokeWidth=2;strokeColor=#007FFF;" edge="1" parent="dVBMem05Sig3Cw7kvz5X-1" source="BQHNbAb8vaV9v1NCeSe9-30" target="BQHNbAb8vaV9v1NCeSe9-28">
          <mxGeometry width="50" height="50" relative="1" as="geometry">
            <mxPoint x="509.65999999999997" y="690" as="sourcePoint" />
            <mxPoint x="509.65999999999997" y="770" as="targetPoint" />
          </mxGeometry>
        </mxCell>
        <mxCell id="BQHNbAb8vaV9v1NCeSe9-36" value="" style="endArrow=classic;html=1;rounded=0;exitX=1;exitY=0.5;exitDx=0;exitDy=0;strokeWidth=2;" edge="1" parent="dVBMem05Sig3Cw7kvz5X-1" source="BQHNbAb8vaV9v1NCeSe9-28" target="BQHNbAb8vaV9v1NCeSe9-31">
          <mxGeometry width="50" height="50" relative="1" as="geometry">
            <mxPoint x="620" y="690" as="sourcePoint" />
            <mxPoint x="500" y="690" as="targetPoint" />
          </mxGeometry>
        </mxCell>
        <mxCell id="BQHNbAb8vaV9v1NCeSe9-37" value="" style="endArrow=classic;html=1;rounded=0;exitX=0.5;exitY=0;exitDx=0;exitDy=0;entryX=0.5;entryY=1;entryDx=0;entryDy=0;strokeWidth=2;" edge="1" parent="dVBMem05Sig3Cw7kvz5X-1" source="BQHNbAb8vaV9v1NCeSe9-31" target="BQHNbAb8vaV9v1NCeSe9-29">
          <mxGeometry width="50" height="50" relative="1" as="geometry">
            <mxPoint x="640" y="780" as="sourcePoint" />
            <mxPoint x="520" y="780" as="targetPoint" />
          </mxGeometry>
        </mxCell>
        <mxCell id="BQHNbAb8vaV9v1NCeSe9-38" value="" style="endArrow=classic;html=1;rounded=0;strokeWidth=2;exitX=0.5;exitY=0;exitDx=0;exitDy=0;" edge="1" parent="dVBMem05Sig3Cw7kvz5X-1" source="BQHNbAb8vaV9v1NCeSe9-47" target="BQHNbAb8vaV9v1NCeSe9-30">
          <mxGeometry width="50" height="50" relative="1" as="geometry">
            <mxPoint x="550" y="870" as="sourcePoint" />
            <mxPoint x="610" y="790" as="targetPoint" />
          </mxGeometry>
        </mxCell>
        <mxCell id="BQHNbAb8vaV9v1NCeSe9-39" value="" style="endArrow=classic;html=1;rounded=0;entryX=1;entryY=0.5;entryDx=0;entryDy=0;strokeWidth=2;exitX=0;exitY=0.5;exitDx=0;exitDy=0;strokeColor=#007FFF;" edge="1" parent="dVBMem05Sig3Cw7kvz5X-1" source="BQHNbAb8vaV9v1NCeSe9-32" target="BQHNbAb8vaV9v1NCeSe9-30">
          <mxGeometry width="50" height="50" relative="1" as="geometry">
            <mxPoint x="652" y="830" as="sourcePoint" />
            <mxPoint x="520" y="830" as="targetPoint" />
          </mxGeometry>
        </mxCell>
        <mxCell id="BQHNbAb8vaV9v1NCeSe9-40" value="" style="endArrow=classic;html=1;rounded=0;exitX=0.5;exitY=1;exitDx=0;exitDy=0;strokeWidth=2;" edge="1" parent="dVBMem05Sig3Cw7kvz5X-1" source="BQHNbAb8vaV9v1NCeSe9-31" target="BQHNbAb8vaV9v1NCeSe9-32">
          <mxGeometry width="50" height="50" relative="1" as="geometry">
            <mxPoint x="630" y="660" as="sourcePoint" />
            <mxPoint x="720" y="660" as="targetPoint" />
          </mxGeometry>
        </mxCell>
        <mxCell id="BQHNbAb8vaV9v1NCeSe9-41" value="3" style="text;html=1;align=center;verticalAlign=middle;whiteSpace=wrap;rounded=0;fontFamily=メイリオ;fontSize=17;" vertex="1" parent="dVBMem05Sig3Cw7kvz5X-1">
          <mxGeometry x="420" y="580" width="40" height="40" as="geometry" />
        </mxCell>
        <mxCell id="BQHNbAb8vaV9v1NCeSe9-42" value="4" style="text;html=1;align=center;verticalAlign=middle;whiteSpace=wrap;rounded=0;fontFamily=メイリオ;fontSize=17;" vertex="1" parent="dVBMem05Sig3Cw7kvz5X-1">
          <mxGeometry x="620" y="580" width="40" height="40" as="geometry" />
        </mxCell>
        <mxCell id="BQHNbAb8vaV9v1NCeSe9-43" value="2" style="text;html=1;align=center;verticalAlign=middle;whiteSpace=wrap;rounded=0;fontFamily=メイリオ;fontSize=17;" vertex="1" parent="dVBMem05Sig3Cw7kvz5X-1">
          <mxGeometry x="620" y="700" width="40" height="40" as="geometry" />
        </mxCell>
        <mxCell id="BQHNbAb8vaV9v1NCeSe9-44" value="2" style="text;html=1;align=center;verticalAlign=middle;whiteSpace=wrap;rounded=0;fontFamily=メイリオ;fontSize=17;" vertex="1" parent="dVBMem05Sig3Cw7kvz5X-1">
          <mxGeometry x="420" y="700" width="40" height="40" as="geometry" />
        </mxCell>
        <mxCell id="BQHNbAb8vaV9v1NCeSe9-45" value="4" style="text;html=1;align=center;verticalAlign=middle;whiteSpace=wrap;rounded=0;fontFamily=メイリオ;fontSize=17;" vertex="1" parent="dVBMem05Sig3Cw7kvz5X-1">
          <mxGeometry x="520" y="660" width="40" height="40" as="geometry" />
        </mxCell>
        <mxCell id="BQHNbAb8vaV9v1NCeSe9-46" value="4" style="text;html=1;align=center;verticalAlign=middle;whiteSpace=wrap;rounded=0;fontFamily=メイリオ;fontSize=17;" vertex="1" parent="dVBMem05Sig3Cw7kvz5X-1">
          <mxGeometry x="520" y="780" width="40" height="40" as="geometry" />
        </mxCell>
        <mxCell id="BQHNbAb8vaV9v1NCeSe9-47" value="6" style="ellipse;whiteSpace=wrap;html=1;aspect=fixed;fontFamily=メイリオ;fontSize=20;" vertex="1" parent="dVBMem05Sig3Cw7kvz5X-1">
          <mxGeometry x="440" y="880" width="40" height="40" as="geometry" />
        </mxCell>
        <mxCell id="BQHNbAb8vaV9v1NCeSe9-48" value="" style="endArrow=classic;html=1;rounded=0;exitX=0;exitY=1;exitDx=0;exitDy=0;entryX=1;entryY=0;entryDx=0;entryDy=0;strokeWidth=2;strokeColor=#000000;" edge="1" parent="dVBMem05Sig3Cw7kvz5X-1" source="BQHNbAb8vaV9v1NCeSe9-29" target="BQHNbAb8vaV9v1NCeSe9-28">
          <mxGeometry width="50" height="50" relative="1" as="geometry">
            <mxPoint x="620" y="680" as="sourcePoint" />
            <mxPoint x="620" y="600" as="targetPoint" />
          </mxGeometry>
        </mxCell>
        <mxCell id="BQHNbAb8vaV9v1NCeSe9-49" value="4" style="text;html=1;align=center;verticalAlign=middle;whiteSpace=wrap;rounded=0;fontFamily=メイリオ;fontSize=17;" vertex="1" parent="dVBMem05Sig3Cw7kvz5X-1">
          <mxGeometry x="420" y="820" width="40" height="40" as="geometry" />
        </mxCell>
        <mxCell id="BQHNbAb8vaV9v1NCeSe9-50" value="3" style="text;html=1;align=center;verticalAlign=middle;whiteSpace=wrap;rounded=0;fontFamily=メイリオ;fontSize=17;" vertex="1" parent="dVBMem05Sig3Cw7kvz5X-1">
          <mxGeometry x="520" y="600" width="40" height="40" as="geometry" />
        </mxCell>
        <mxCell id="BQHNbAb8vaV9v1NCeSe9-51" value="4" style="text;html=1;align=center;verticalAlign=middle;whiteSpace=wrap;rounded=0;fontFamily=メイリオ;fontSize=17;" vertex="1" parent="dVBMem05Sig3Cw7kvz5X-1">
          <mxGeometry x="520" y="500" width="40" height="40" as="geometry" />
        </mxCell>
        <mxCell id="BQHNbAb8vaV9v1NCeSe9-52" value="" style="endArrow=classic;html=1;rounded=0;entryX=1;entryY=0.5;entryDx=0;entryDy=0;strokeWidth=2;exitX=0.5;exitY=1;exitDx=0;exitDy=0;strokeColor=#007FFF;" edge="1" parent="dVBMem05Sig3Cw7kvz5X-1" source="BQHNbAb8vaV9v1NCeSe9-32" target="BQHNbAb8vaV9v1NCeSe9-47">
          <mxGeometry width="50" height="50" relative="1" as="geometry">
            <mxPoint x="690" y="780" as="sourcePoint" />
            <mxPoint x="570" y="780" as="targetPoint" />
          </mxGeometry>
        </mxCell>
        <mxCell id="BQHNbAb8vaV9v1NCeSe9-53" value="4" style="text;html=1;align=center;verticalAlign=middle;whiteSpace=wrap;rounded=0;fontFamily=メイリオ;fontSize=17;" vertex="1" parent="dVBMem05Sig3Cw7kvz5X-1">
          <mxGeometry x="520" y="860" width="40" height="40" as="geometry" />
        </mxCell>
        <mxCell id="BQHNbAb8vaV9v1NCeSe9-54" value="" style="endArrow=classic;html=1;rounded=0;exitX=0.5;exitY=1;exitDx=0;exitDy=0;strokeWidth=2;fillColor=#f8cecc;strokeColor=#000000;labelBorderColor=none;entryX=0.5;entryY=0;entryDx=0;entryDy=0;" edge="1" parent="dVBMem05Sig3Cw7kvz5X-1">
          <mxGeometry width="50" height="50" relative="1" as="geometry">
            <mxPoint x="940" y="280" as="sourcePoint" />
            <mxPoint x="1020" y="360" as="targetPoint" />
          </mxGeometry>
        </mxCell>
        <mxCell id="BQHNbAb8vaV9v1NCeSe9-55" value="" style="endArrow=classic;html=1;rounded=0;exitX=0.5;exitY=1;exitDx=0;exitDy=0;strokeWidth=2;fillColor=#f8cecc;strokeColor=#FF0000;labelBorderColor=none;entryX=0.5;entryY=0;entryDx=0;entryDy=0;" edge="1" parent="dVBMem05Sig3Cw7kvz5X-1">
          <mxGeometry width="50" height="50" relative="1" as="geometry">
            <mxPoint x="940" y="280" as="sourcePoint" />
            <mxPoint x="1100" y="360" as="targetPoint" />
          </mxGeometry>
        </mxCell>
        <mxCell id="BQHNbAb8vaV9v1NCeSe9-56" value="" style="endArrow=classic;html=1;rounded=0;exitX=0.5;exitY=1;exitDx=0;exitDy=0;strokeWidth=2;fillColor=#f8cecc;strokeColor=#000000;labelBorderColor=none;entryX=0.5;entryY=0;entryDx=0;entryDy=0;" edge="1" parent="dVBMem05Sig3Cw7kvz5X-1">
          <mxGeometry width="50" height="50" relative="1" as="geometry">
            <mxPoint x="940" y="280" as="sourcePoint" />
            <mxPoint x="940" y="360" as="targetPoint" />
          </mxGeometry>
        </mxCell>
        <mxCell id="BQHNbAb8vaV9v1NCeSe9-57" value="" style="endArrow=classic;html=1;rounded=0;strokeWidth=2;fillColor=#f8cecc;strokeColor=#FF0000;labelBorderColor=none;entryX=0.5;entryY=0;entryDx=0;entryDy=0;exitX=0.5;exitY=1;exitDx=0;exitDy=0;" edge="1" parent="dVBMem05Sig3Cw7kvz5X-1">
          <mxGeometry width="50" height="50" relative="1" as="geometry">
            <mxPoint x="940" y="200" as="sourcePoint" />
            <mxPoint x="940" y="240" as="targetPoint" />
          </mxGeometry>
        </mxCell>
        <mxCell id="BQHNbAb8vaV9v1NCeSe9-58" value="" style="endArrow=classic;html=1;rounded=0;strokeWidth=2;fillColor=#f8cecc;strokeColor=#000000;labelBorderColor=none;entryX=0.5;entryY=0;entryDx=0;entryDy=0;exitX=0.5;exitY=1;exitDx=0;exitDy=0;" edge="1" parent="dVBMem05Sig3Cw7kvz5X-1">
          <mxGeometry width="50" height="50" relative="1" as="geometry">
            <mxPoint x="940" y="200" as="sourcePoint" />
            <mxPoint x="1020" y="240" as="targetPoint" />
          </mxGeometry>
        </mxCell>
        <mxCell id="BQHNbAb8vaV9v1NCeSe9-59" value="&lt;font style=&quot;font-size: 8px;&quot; face=&quot;メイリオ&quot;&gt;$$3 \rightarrow A$$&lt;/font&gt;&lt;div&gt;&lt;font style=&quot;font-size: 8px;&quot; face=&quot;メイリオ&quot;&gt;$$(3 \rightarrow 1)$$&lt;/font&gt;&lt;/div&gt;" style="rounded=1;whiteSpace=wrap;html=1;strokeColor=#FF0000;" vertex="1" parent="dVBMem05Sig3Cw7kvz5X-1">
          <mxGeometry x="920" y="240" width="40" height="40" as="geometry" />
        </mxCell>
        <mxCell id="BQHNbAb8vaV9v1NCeSe9-60" value="&lt;font style=&quot;font-size: 8px;&quot; face=&quot;メイリオ&quot;&gt;$$2 \rightarrow 0$$&lt;/font&gt;" style="rounded=1;whiteSpace=wrap;html=1;" vertex="1" parent="dVBMem05Sig3Cw7kvz5X-1">
          <mxGeometry x="920" y="360" width="40" height="40" as="geometry" />
        </mxCell>
        <mxCell id="BQHNbAb8vaV9v1NCeSe9-61" value="&lt;font style=&quot;font-size: 8px;&quot; face=&quot;メイリオ&quot;&gt;$$0\rightarrow 1$$&lt;/font&gt;" style="rounded=1;whiteSpace=wrap;html=1;" vertex="1" parent="dVBMem05Sig3Cw7kvz5X-1">
          <mxGeometry x="1000" y="360" width="40" height="40" as="geometry" />
        </mxCell>
        <mxCell id="BQHNbAb8vaV9v1NCeSe9-62" value="&lt;font style=&quot;font-size: 8px;&quot; face=&quot;メイリオ&quot;&gt;$$1\rightarrow 2$$&lt;/font&gt;" style="rounded=1;whiteSpace=wrap;html=1;strokeColor=#FF0000;" vertex="1" parent="dVBMem05Sig3Cw7kvz5X-1">
          <mxGeometry x="1080" y="360" width="40" height="40" as="geometry" />
        </mxCell>
        <mxCell id="BQHNbAb8vaV9v1NCeSe9-63" value="&lt;font style=&quot;font-size: 8px;&quot; face=&quot;メイリオ&quot;&gt;$$A \rightarrow 3$$&lt;/font&gt;&lt;div&gt;&lt;font style=&quot;font-size: 8px;&quot; face=&quot;メイリオ&quot;&gt;$$(2 \rightarrow 3)$$&lt;/font&gt;&lt;/div&gt;" style="rounded=1;whiteSpace=wrap;html=1;" vertex="1" parent="dVBMem05Sig3Cw7kvz5X-1">
          <mxGeometry x="1000" y="240" width="40" height="40" as="geometry" />
        </mxCell>
        <mxCell id="BQHNbAb8vaV9v1NCeSe9-64" value="&lt;font style=&quot;font-size: 8px;&quot; face=&quot;メイリオ&quot;&gt;$$4 \rightarrow B$$&lt;/font&gt;&lt;div&gt;&lt;font style=&quot;font-size: 8px;&quot; face=&quot;メイリオ&quot;&gt;$$(4 \rightarrow 2)$$&lt;/font&gt;&lt;/div&gt;" style="rounded=1;whiteSpace=wrap;html=1;strokeColor=#FF0000;" vertex="1" parent="dVBMem05Sig3Cw7kvz5X-1">
          <mxGeometry x="920" y="160" width="40" height="40" as="geometry" />
        </mxCell>
        <mxCell id="BQHNbAb8vaV9v1NCeSe9-72" value="&lt;font style=&quot;font-size: 8px;&quot; face=&quot;メイリオ&quot;&gt;$$2 \rightarrow 0$$&lt;/font&gt;" style="rounded=1;whiteSpace=wrap;html=1;" vertex="1" parent="dVBMem05Sig3Cw7kvz5X-1">
          <mxGeometry x="1160" y="360" width="40" height="40" as="geometry" />
        </mxCell>
        <mxCell id="BQHNbAb8vaV9v1NCeSe9-73" value="&lt;font style=&quot;font-size: 8px;&quot; face=&quot;メイリオ&quot;&gt;$$0\rightarrow 1$$&lt;/font&gt;" style="rounded=1;whiteSpace=wrap;html=1;" vertex="1" parent="dVBMem05Sig3Cw7kvz5X-1">
          <mxGeometry x="1240" y="360" width="40" height="40" as="geometry" />
        </mxCell>
        <mxCell id="BQHNbAb8vaV9v1NCeSe9-75" value="&lt;font style=&quot;font-size: 8px;&quot; face=&quot;メイリオ&quot;&gt;$$A \rightarrow 3$$&lt;/font&gt;&lt;div&gt;&lt;font style=&quot;font-size: 8px;&quot; face=&quot;メイリオ&quot;&gt;$$(2 \rightarrow 3)$$&lt;/font&gt;&lt;/div&gt;" style="rounded=1;whiteSpace=wrap;html=1;" vertex="1" parent="dVBMem05Sig3Cw7kvz5X-1">
          <mxGeometry x="1240" y="240" width="40" height="40" as="geometry" />
        </mxCell>
        <mxCell id="BQHNbAb8vaV9v1NCeSe9-78" value="&lt;font&gt;0&lt;/font&gt;" style="ellipse;whiteSpace=wrap;html=1;aspect=fixed;fontFamily=メイリオ;fontSize=20;" vertex="1" parent="dVBMem05Sig3Cw7kvz5X-1">
          <mxGeometry x="800" y="520" width="40" height="40" as="geometry" />
        </mxCell>
        <mxCell id="BQHNbAb8vaV9v1NCeSe9-79" value="2" style="ellipse;whiteSpace=wrap;html=1;aspect=fixed;fontFamily=メイリオ;fontSize=20;" vertex="1" parent="dVBMem05Sig3Cw7kvz5X-1">
          <mxGeometry x="800" y="640" width="40" height="40" as="geometry" />
        </mxCell>
        <mxCell id="BQHNbAb8vaV9v1NCeSe9-80" value="1" style="ellipse;whiteSpace=wrap;html=1;aspect=fixed;fontFamily=メイリオ;fontSize=20;" vertex="1" parent="dVBMem05Sig3Cw7kvz5X-1">
          <mxGeometry x="960" y="520" width="40" height="40" as="geometry" />
        </mxCell>
        <mxCell id="BQHNbAb8vaV9v1NCeSe9-81" value="4" style="ellipse;whiteSpace=wrap;html=1;aspect=fixed;fontFamily=メイリオ;fontSize=20;" vertex="1" parent="dVBMem05Sig3Cw7kvz5X-1">
          <mxGeometry x="800" y="760" width="40" height="40" as="geometry" />
        </mxCell>
        <mxCell id="BQHNbAb8vaV9v1NCeSe9-82" value="3" style="ellipse;whiteSpace=wrap;html=1;aspect=fixed;fontFamily=メイリオ;fontSize=20;" vertex="1" parent="dVBMem05Sig3Cw7kvz5X-1">
          <mxGeometry x="960" y="640" width="40" height="40" as="geometry" />
        </mxCell>
        <mxCell id="BQHNbAb8vaV9v1NCeSe9-83" value="5" style="ellipse;whiteSpace=wrap;html=1;aspect=fixed;fontFamily=メイリオ;fontSize=20;" vertex="1" parent="dVBMem05Sig3Cw7kvz5X-1">
          <mxGeometry x="960" y="760" width="40" height="40" as="geometry" />
        </mxCell>
        <mxCell id="BQHNbAb8vaV9v1NCeSe9-84" value="" style="endArrow=classic;html=1;rounded=0;entryX=0.5;entryY=1;entryDx=0;entryDy=0;strokeWidth=2;exitX=0.5;exitY=0;exitDx=0;exitDy=0;fillColor=#f8cecc;strokeColor=#007FFF;" edge="1" parent="dVBMem05Sig3Cw7kvz5X-1" source="BQHNbAb8vaV9v1NCeSe9-79" target="BQHNbAb8vaV9v1NCeSe9-78">
          <mxGeometry width="50" height="50" relative="1" as="geometry">
            <mxPoint x="770" y="610" as="sourcePoint" />
            <mxPoint x="1420" y="820" as="targetPoint" />
          </mxGeometry>
        </mxCell>
        <mxCell id="BQHNbAb8vaV9v1NCeSe9-85" value="" style="endArrow=classic;html=1;rounded=0;strokeWidth=2;exitX=1;exitY=0.5;exitDx=0;exitDy=0;entryX=0;entryY=0.5;entryDx=0;entryDy=0;strokeColor=#007FFF;" edge="1" parent="dVBMem05Sig3Cw7kvz5X-1" source="BQHNbAb8vaV9v1NCeSe9-78" target="BQHNbAb8vaV9v1NCeSe9-80">
          <mxGeometry width="50" height="50" relative="1" as="geometry">
            <mxPoint x="920" y="600" as="sourcePoint" />
            <mxPoint x="870" y="600" as="targetPoint" />
          </mxGeometry>
        </mxCell>
        <mxCell id="BQHNbAb8vaV9v1NCeSe9-86" value="" style="endArrow=classic;html=1;rounded=0;exitX=0.5;exitY=0;exitDx=0;exitDy=0;entryX=0.5;entryY=1;entryDx=0;entryDy=0;strokeWidth=2;strokeColor=#007FFF;" edge="1" parent="dVBMem05Sig3Cw7kvz5X-1" source="BQHNbAb8vaV9v1NCeSe9-81" target="BQHNbAb8vaV9v1NCeSe9-79">
          <mxGeometry width="50" height="50" relative="1" as="geometry">
            <mxPoint x="869.66" y="690" as="sourcePoint" />
            <mxPoint x="869.66" y="770" as="targetPoint" />
          </mxGeometry>
        </mxCell>
        <mxCell id="BQHNbAb8vaV9v1NCeSe9-87" value="" style="endArrow=classic;html=1;rounded=0;exitX=1;exitY=0.5;exitDx=0;exitDy=0;strokeWidth=2;strokeColor=#007FFF;" edge="1" parent="dVBMem05Sig3Cw7kvz5X-1" source="BQHNbAb8vaV9v1NCeSe9-79" target="BQHNbAb8vaV9v1NCeSe9-82">
          <mxGeometry width="50" height="50" relative="1" as="geometry">
            <mxPoint x="980" y="690" as="sourcePoint" />
            <mxPoint x="860" y="690" as="targetPoint" />
          </mxGeometry>
        </mxCell>
        <mxCell id="BQHNbAb8vaV9v1NCeSe9-88" value="" style="endArrow=classic;html=1;rounded=0;exitX=0.5;exitY=0;exitDx=0;exitDy=0;entryX=0.5;entryY=1;entryDx=0;entryDy=0;strokeWidth=2;" edge="1" parent="dVBMem05Sig3Cw7kvz5X-1" source="BQHNbAb8vaV9v1NCeSe9-82" target="BQHNbAb8vaV9v1NCeSe9-80">
          <mxGeometry width="50" height="50" relative="1" as="geometry">
            <mxPoint x="1000" y="780" as="sourcePoint" />
            <mxPoint x="880" y="780" as="targetPoint" />
          </mxGeometry>
        </mxCell>
        <mxCell id="BQHNbAb8vaV9v1NCeSe9-89" value="" style="endArrow=classic;html=1;rounded=0;strokeWidth=2;exitX=0.5;exitY=0;exitDx=0;exitDy=0;" edge="1" parent="dVBMem05Sig3Cw7kvz5X-1" source="BQHNbAb8vaV9v1NCeSe9-98" target="BQHNbAb8vaV9v1NCeSe9-81">
          <mxGeometry width="50" height="50" relative="1" as="geometry">
            <mxPoint x="910" y="870" as="sourcePoint" />
            <mxPoint x="970" y="790" as="targetPoint" />
          </mxGeometry>
        </mxCell>
        <mxCell id="BQHNbAb8vaV9v1NCeSe9-90" value="" style="endArrow=classic;html=1;rounded=0;entryX=1;entryY=0.5;entryDx=0;entryDy=0;strokeWidth=2;exitX=0;exitY=0.5;exitDx=0;exitDy=0;strokeColor=#007FFF;" edge="1" parent="dVBMem05Sig3Cw7kvz5X-1" source="BQHNbAb8vaV9v1NCeSe9-83" target="BQHNbAb8vaV9v1NCeSe9-81">
          <mxGeometry width="50" height="50" relative="1" as="geometry">
            <mxPoint x="1012" y="830" as="sourcePoint" />
            <mxPoint x="880" y="830" as="targetPoint" />
          </mxGeometry>
        </mxCell>
        <mxCell id="BQHNbAb8vaV9v1NCeSe9-91" value="" style="endArrow=classic;html=1;rounded=0;exitX=0.5;exitY=1;exitDx=0;exitDy=0;strokeWidth=2;" edge="1" parent="dVBMem05Sig3Cw7kvz5X-1" source="BQHNbAb8vaV9v1NCeSe9-82" target="BQHNbAb8vaV9v1NCeSe9-83">
          <mxGeometry width="50" height="50" relative="1" as="geometry">
            <mxPoint x="990" y="660" as="sourcePoint" />
            <mxPoint x="1080" y="660" as="targetPoint" />
          </mxGeometry>
        </mxCell>
        <mxCell id="BQHNbAb8vaV9v1NCeSe9-92" value="3" style="text;html=1;align=center;verticalAlign=middle;whiteSpace=wrap;rounded=0;fontFamily=メイリオ;fontSize=17;" vertex="1" parent="dVBMem05Sig3Cw7kvz5X-1">
          <mxGeometry x="780" y="580" width="40" height="40" as="geometry" />
        </mxCell>
        <mxCell id="BQHNbAb8vaV9v1NCeSe9-93" value="4" style="text;html=1;align=center;verticalAlign=middle;whiteSpace=wrap;rounded=0;fontFamily=メイリオ;fontSize=17;" vertex="1" parent="dVBMem05Sig3Cw7kvz5X-1">
          <mxGeometry x="980" y="580" width="40" height="40" as="geometry" />
        </mxCell>
        <mxCell id="BQHNbAb8vaV9v1NCeSe9-94" value="2" style="text;html=1;align=center;verticalAlign=middle;whiteSpace=wrap;rounded=0;fontFamily=メイリオ;fontSize=17;" vertex="1" parent="dVBMem05Sig3Cw7kvz5X-1">
          <mxGeometry x="980" y="700" width="40" height="40" as="geometry" />
        </mxCell>
        <mxCell id="BQHNbAb8vaV9v1NCeSe9-95" value="2" style="text;html=1;align=center;verticalAlign=middle;whiteSpace=wrap;rounded=0;fontFamily=メイリオ;fontSize=17;" vertex="1" parent="dVBMem05Sig3Cw7kvz5X-1">
          <mxGeometry x="780" y="700" width="40" height="40" as="geometry" />
        </mxCell>
        <mxCell id="BQHNbAb8vaV9v1NCeSe9-96" value="4" style="text;html=1;align=center;verticalAlign=middle;whiteSpace=wrap;rounded=0;fontFamily=メイリオ;fontSize=17;" vertex="1" parent="dVBMem05Sig3Cw7kvz5X-1">
          <mxGeometry x="880" y="660" width="40" height="40" as="geometry" />
        </mxCell>
        <mxCell id="BQHNbAb8vaV9v1NCeSe9-97" value="4" style="text;html=1;align=center;verticalAlign=middle;whiteSpace=wrap;rounded=0;fontFamily=メイリオ;fontSize=17;" vertex="1" parent="dVBMem05Sig3Cw7kvz5X-1">
          <mxGeometry x="880" y="780" width="40" height="40" as="geometry" />
        </mxCell>
        <mxCell id="BQHNbAb8vaV9v1NCeSe9-98" value="6" style="ellipse;whiteSpace=wrap;html=1;aspect=fixed;fontFamily=メイリオ;fontSize=20;" vertex="1" parent="dVBMem05Sig3Cw7kvz5X-1">
          <mxGeometry x="800" y="880" width="40" height="40" as="geometry" />
        </mxCell>
        <mxCell id="BQHNbAb8vaV9v1NCeSe9-99" value="" style="endArrow=classic;html=1;rounded=0;exitX=0;exitY=1;exitDx=0;exitDy=0;entryX=1;entryY=0;entryDx=0;entryDy=0;strokeWidth=2;strokeColor=#000000;" edge="1" parent="dVBMem05Sig3Cw7kvz5X-1" source="BQHNbAb8vaV9v1NCeSe9-80" target="BQHNbAb8vaV9v1NCeSe9-79">
          <mxGeometry width="50" height="50" relative="1" as="geometry">
            <mxPoint x="980" y="680" as="sourcePoint" />
            <mxPoint x="980" y="600" as="targetPoint" />
          </mxGeometry>
        </mxCell>
        <mxCell id="BQHNbAb8vaV9v1NCeSe9-100" value="4" style="text;html=1;align=center;verticalAlign=middle;whiteSpace=wrap;rounded=0;fontFamily=メイリオ;fontSize=17;" vertex="1" parent="dVBMem05Sig3Cw7kvz5X-1">
          <mxGeometry x="780" y="820" width="40" height="40" as="geometry" />
        </mxCell>
        <mxCell id="BQHNbAb8vaV9v1NCeSe9-101" value="3" style="text;html=1;align=center;verticalAlign=middle;whiteSpace=wrap;rounded=0;fontFamily=メイリオ;fontSize=17;" vertex="1" parent="dVBMem05Sig3Cw7kvz5X-1">
          <mxGeometry x="880" y="600" width="40" height="40" as="geometry" />
        </mxCell>
        <mxCell id="BQHNbAb8vaV9v1NCeSe9-102" value="4" style="text;html=1;align=center;verticalAlign=middle;whiteSpace=wrap;rounded=0;fontFamily=メイリオ;fontSize=17;" vertex="1" parent="dVBMem05Sig3Cw7kvz5X-1">
          <mxGeometry x="880" y="500" width="40" height="40" as="geometry" />
        </mxCell>
        <mxCell id="BQHNbAb8vaV9v1NCeSe9-103" value="" style="endArrow=classic;html=1;rounded=0;entryX=1;entryY=0.5;entryDx=0;entryDy=0;strokeWidth=2;exitX=0.5;exitY=1;exitDx=0;exitDy=0;strokeColor=#007FFF;" edge="1" parent="dVBMem05Sig3Cw7kvz5X-1" source="BQHNbAb8vaV9v1NCeSe9-83" target="BQHNbAb8vaV9v1NCeSe9-98">
          <mxGeometry width="50" height="50" relative="1" as="geometry">
            <mxPoint x="1050" y="780" as="sourcePoint" />
            <mxPoint x="930" y="780" as="targetPoint" />
          </mxGeometry>
        </mxCell>
        <mxCell id="BQHNbAb8vaV9v1NCeSe9-104" value="4" style="text;html=1;align=center;verticalAlign=middle;whiteSpace=wrap;rounded=0;fontFamily=メイリオ;fontSize=17;" vertex="1" parent="dVBMem05Sig3Cw7kvz5X-1">
          <mxGeometry x="880" y="860" width="40" height="40" as="geometry" />
        </mxCell>
      </root>
    </mxGraphModel>
  </diagram>
</mxfile>
